<?xml version="1.0" encoding="UTF-8"?><svg version="1.1" id="Layer_1" xmlns="http://www.w3.org/2000/svg" xmlns:xlink="http://www.w3.org/1999/xlink" x="0px" y="0px" viewBox="0 0 1000 1000" style="enable-background:new 0 0 1000 1000;" xml:space="preserve" width="1000px" height="1000px">

<path d="M632,350.4H388.6c-3,0-6,1.2-8.1,3.4l-27.1,27.1c-2.2,2.2-3.4,5.1-3.4,8.1v243.4c0,9.9,8.1,18,18,18h264
	c9.9,0,18-8.1,18-18v-264C650,358.5,641.9,350.4,632,350.4C632,350.4,632,350.4,632,350.4z" style="fill:#4B94A5;stroke:#4B94A5;stroke-width:6;stroke-linecap:round;stroke-linejoin:round;"/>
<path d="M620.1,336.9H376.7c-3,0-6,1.2-8.1,3.4l-27.1,27.1c-2.2,2.2-3.4,5.1-3.4,8.1v243.4c0,9.9,8.1,18,18,18h264
	c9.9,0,18-8.1,18-18v-264C638.1,345,630,336.9,620.1,336.9C620.1,336.9,620.1,336.9,620.1,336.9z" style="fill:#747178;"/>
<circle cx="488.1" cy="491.9" r="126.7" style="opacity:0.43;fill:#514E55;stroke:#464349;stroke-width:4;stroke-miterlimit:10;enable-background:new    ;"/>
<g>
	<path d="M620.1,639.9h-264c-11.6,0-21-9.4-21-21V375.5c0-3.9,1.5-7.5,4.2-10.2l27.1-27.1c2.7-2.7,6.4-4.2,10.2-4.2
		h243.4c11.6,0,21,9.4,21,21v264C641.1,630.5,631.7,639.9,620.1,639.9z M376.7,339.9c-2.3,0-4.4,0.9-6,2.5l-27.1,27.1
		c-1.6,1.6-2.5,3.7-2.5,6v243.4c0,8.3,6.7,15,15,15h264c8.3,0,15-6.7,15-15v-264c0-8.3-6.7-15-15-15H376.7z" style="fill:#413E51;"/>
</g>
<g>
	<path d="M620.1,639.9h-264c-11.6,0-21-9.4-21-21V375.5c0-3.9,1.5-7.5,4.2-10.2l27.1-27.1c2.7-2.7,6.4-4.2,10.2-4.2
		h243.4c11.6,0,21,9.4,21,21v264C641.1,630.5,631.7,639.9,620.1,639.9z M376.7,339.9c-2.3,0-4.4,0.9-6,2.5l-27.1,27.1
		c-1.6,1.6-2.5,3.7-2.5,6v243.4c0,8.3,6.7,15,15,15h264c8.3,0,15-6.7,15-15v-264c0-8.3-6.7-15-15-15H376.7z" style="fill:#413E51;"/>
</g>
<circle cx="488.1" cy="491.9" r="42" style="fill:#C9C9C9;"/>
<g>
	<path d="M488.1,536.9c-24.8,0-45-20.2-45-45s20.2-45,45-45c24.8,0,45,20.2,45,45S512.9,536.9,488.1,536.9z
		 M488.1,452.9c-21.5,0-39,17.5-39,39c0,21.5,17.5,39,39,39s39-17.5,39-39C527.1,470.4,509.6,452.9,488.1,452.9z" style="fill:#413E51;"/>
</g>
<path d="M402.1,593.9h172c9.9,0,18,8.1,18,18v25l0,0h-208l0,0v-25C384.1,602,392.1,593.9,402.1,593.9z" style="fill:#413E51;"/>
<g>
	<path d="M592.1,639.9h-208c-1.7,0-3-1.3-3-3v-25c0-11.6,9.4-21,21-21h172c11.6,0,21,9.4,21,21v25
		C595.1,638.6,593.7,639.9,592.1,639.9z M387.1,633.9h202v-22c0-8.3-6.7-15-15-15h-172c-8.3,0-15,6.7-15,15V633.9z" style="fill:#413E51;"/>
</g>
<rect x="605.6" y="593.9" width="14" height="14" style="fill:#413E51;"/>
<g>
	<path d="M619.6,610.9h-14c-1.7,0-3-1.3-3-3v-14c0-1.7,1.3-3,3-3h14c1.7,0,3,1.3,3,3v14
		C622.6,609.6,621.2,610.9,619.6,610.9z M608.6,604.9h8v-8h-8V604.9z" style="fill:#413E51;"/>
</g>
<g>
	<path d="M597.1,584.6h-67c-2.2,0-4-1.8-4-4s1.8-4,4-4h67c2.2,0,4,1.8,4,4S599.3,584.6,597.1,584.6z" style="fill:#413E51;"/>
</g>
<rect x="482.6" y="485.9" width="9" height="9" style="fill:#413E51;"/>
<g>
	<path d="M491.6,497.9h-9c-1.7,0-3-1.3-3-3v-9c0-1.7,1.3-3,3-3h9c1.7,0,3,1.3,3,3v9
		C494.6,496.6,493.2,497.9,491.6,497.9z M485.6,491.9h3v-3h-3V491.9z" style="fill:#413E51;"/>
</g>
<rect x="490" y="504.4" transform="matrix(0.9437 -0.3309 0.3309 0.9437 -140.3963 194.1317)" width="20" height="10" style="fill:#413E51;"/>
<g>
	<path d="M492.2,520.5c-0.4,0-0.9-0.1-1.3-0.3c-0.7-0.3-1.3-1-1.5-1.7l-3.3-9.4c-0.5-1.6,0.3-3.3,1.8-3.8l18.9-6.6
		c0.8-0.3,1.6-0.2,2.3,0.1c0.7,0.3,1.3,1,1.5,1.7l3.3,9.4c0.5,1.6-0.3,3.3-1.8,3.8l-18.9,6.6C492.9,520.4,492.5,520.5,492.2,520.5z
		 M492.7,509.9l1.3,3.8l13.2-4.6l-1.3-3.8L492.7,509.9z" style="fill:#413E51;"/>
</g>
<path d="M638.1,398.9c-6.6,0-12-5.4-12-12s5.4-12,12-12V398.9z" style="fill:#413E51;"/>
<g>
	<path d="M638.1,401.9c-8.3,0-15-6.7-15-15s6.7-15,15-15c1.7,0,3,1.3,3,3v24C641.1,400.6,639.7,401.9,638.1,401.9z
		 M635.1,378.5c-3.5,1.2-6,4.6-6,8.5s2.5,7.2,6,8.5V378.5z" style="fill:#413E51;"/>
</g>
<path d="M338.1,398.9c6.6,0,12-5.4,12-12s-5.4-12-12-12V398.9z" style="fill:#413E51;"/>
<g>
	<path d="M338.1,401.9c-1.7,0-3-1.3-3-3v-24c0-1.7,1.3-3,3-3c8.3,0,15,6.7,15,15S346.4,401.9,338.1,401.9z M341.1,378.5
		v17c3.5-1.2,6-4.6,6-8.5S344.6,379.7,341.1,378.5z" style="fill:#413E51;"/>
</g>
<circle cx="359.8" cy="414.4" r="8.5" style="fill:#413E51;"/>
<circle cx="610.3" cy="414.4" r="8.5" style="fill:#413E51;"/>
<path d="M423.1,336.9h174l0,0v74c0,9.9-8.1,18-18,18h-138c-9.9,0-18-8.1-18-18V336.9L423.1,336.9z" style="fill:#514E55;"/>
<g style="opacity:0.48;enable-background:new    ;">
	<path d="M535.1,431.9h-88c-11.6,0-21-9.4-21-21v-74c0-1.7,1.3-3,3-3h124c1.7,0,3,1.3,3,3v74
		C556.1,422.5,546.7,431.9,535.1,431.9z M432.1,339.9v71c0,8.3,6.7,15,15,15h88c8.3,0,15-6.7,15-15v-71H432.1z" style="fill:#413E51;"/>
</g>
<g>
	<path d="M579.1,431.9h-138c-11.6,0-21-9.4-21-21v-74c0-1.7,1.3-3,3-3h174c1.7,0,3,1.3,3,3v74
		C600.1,422.5,590.7,431.9,579.1,431.9z M426.1,339.9v71c0,8.3,6.7,15,15,15h138c8.3,0,15-6.7,15-15v-71H426.1z" style="fill:#413E51;"/>
</g>
<g>
	<path d="M580.6,353.9h-33.5c-2.2,0-4-1.8-4-4s1.8-4,4-4h33.5c2.2,0,4,1.8,4,4S582.8,353.9,580.6,353.9z" style="fill:#413E51;"/>
</g>
<path d="M423.1,336.9h124l0,0v74c0,9.9-8.1,18-18,18h-88c-9.9,0-18-8.1-18-18V336.9L423.1,336.9z" style="fill:#BFC1C0;"/>
<polygon points="495.6,428.9 547.1,357.8 547.1,341.5 482.2,428.9 " style="opacity:0.52;fill:#DDDDDD;enable-background:new    ;"/>
<path d="M444.4,428.6c1.2,0.2-4.6,0.4-3.3,0.4h29.8l68.7-92h-26.8L444.4,428.6z" style="opacity:0.52;fill:#DDDDDD;enable-background:new    ;"/>
<g>
	<path d="M529.1,431.9h-88c-11.6,0-21-9.4-21-21v-74c0-1.7,1.3-3,3-3h124c1.7,0,3,1.3,3,3v74
		C550.1,422.5,540.7,431.9,529.1,431.9z M426.1,339.9v71c0,8.3,6.7,15,15,15h88c8.3,0,15-6.7,15-15v-71H426.1z" style="fill:#413E51;"/>
</g>
<rect x="445.7" y="347.9" width="24" height="58" style="fill:#514E55;"/>
<rect x="445.7" y="347.9" width="13.4" height="58" style="opacity:0.48;fill:#413E51;enable-background:new    ;"/>
<g>
	<path d="M469.7,408.9h-24c-1.7,0-3-1.3-3-3v-58c0-1.7,1.3-3,3-3h24c1.7,0,3,1.3,3,3v58
		C472.7,407.6,471.3,408.9,469.7,408.9z M448.7,402.9h18v-52h-18V402.9z" style="fill:#413E51;"/>
</g>
<g>
	<path d="M534.2,356.9h-12c-1.7,0-3-1.3-3-3v-6c0-1.7,1.3-3,3-3h12c1.7,0,3,1.3,3,3v6
		C537.2,355.6,535.9,356.9,534.2,356.9z" style="fill:#413E51;"/>
</g>
<g>
	<path d="M361.4,639.9c-1.7,0-3-1.3-3-3v-24c0-1.7,1.3-3,3-3s3,1.3,3,3v24C364.4,638.6,363.1,639.9,361.4,639.9z" style="fill:#413E51;"/>
</g>
</svg>