<?xml version="1.0" encoding="UTF-8"?><svg version="1.1" id="Layer_1" xmlns="http://www.w3.org/2000/svg" xmlns:xlink="http://www.w3.org/1999/xlink" x="0px" y="0px" viewBox="0 0 1000 1000" enable-background="new 0 0 1000 1000" xml:space="preserve" width="1000px" height="1000px">
<g>
	<g id="Layer_1_1_">
		
			<path opacity="0.24" stroke="#000000" stroke-width="6" stroke-linecap="round" stroke-linejoin="round" enable-background="new    " d="
			M388.636,275.9h280c5.523,0,10,4.477,10,10v432.912c0,26.51-21.49,48-48,48h-242c-5.523,0-10-4.477-10-10V285.9
			C378.636,280.377,383.113,275.9,388.636,275.9z"/>
		<path fill="#FCA417" d="M360,254.545h280c5.523,0,10,4.477,10,10v432.91c0,26.51-21.49,48-48,48H360c-5.523,0-10-4.477-10-10
			v-470.91C350,259.022,354.477,254.545,360,254.545C360,254.545,360,254.545,360,254.545z"/>
		<path opacity="0.33" fill="#FFFFFF" enable-background="new    " d="M361.818,731.818V268.182c0-7.531,6.105-13.637,13.637-13.637
			h-11.819c-7.531,0.001-13.636,6.106-13.636,13.637v463.636c0,7.531,6.105,13.636,13.636,13.637h11.819
			C367.923,745.455,361.818,739.349,361.818,731.818L361.818,731.818z"/>
		<circle fill="#FCA84C" cx="440" cy="591.364" r="51.818"/>
		<path opacity="0.66" fill="#FCA84C" enable-background="new    " d="M402.066,561.018c17.483-21.85,49.158-25.868,71.543-9.075
			c-0.411-0.35-0.816-0.7-1.24-1.044c-22.348-17.877-54.957-14.252-72.834,8.096c-17.877,22.348-14.252,54.957,8.096,72.833
			c0.424,0.339,0.859,0.656,1.29,0.98C387.622,614.657,384.587,582.872,402.066,561.018z"/>
		<g>
			<path fill="#FCA84C" d="M636.364,254.545h-12.5c7.576-0.018,13.756,6.062,13.863,13.637V680
				c-0.107,36.194-29.488,65.473-65.682,65.455h12.5C620.695,745.455,650,716.15,650,680l0,0V268.182
				C650,260.651,643.895,254.546,636.364,254.545z"/>
			<path fill="#FCA84C" d="M544.72,745.455h39.825C620.695,745.455,650,716.15,650,680l0,0v-39.826L544.72,745.455z"/>
			<path fill="#FCA84C" d="M584.545,735.909h-212.5c-5.146,0-9.318,4.172-9.318,9.318v0.228h221.818
				C642.649,745.455,650,716.15,650,680v-9.545C649.999,706.604,620.694,735.909,584.545,735.909z"/>
		</g>
		<g>
			<path d="M602,748.455H360c-7.168,0-13-5.832-13-13v-470.91c0-7.168,5.832-13,13-13h280c7.168,0,13,5.832,13,13v432.91
				C653,725.576,630.121,748.455,602,748.455z M360,257.545c-3.86,0-7,3.14-7,7v470.91c0,3.859,3.14,7,7,7h242
				c24.813,0,45-20.187,45-45v-432.91c0-3.86-3.141-7-7-7H360z"/>
		</g>
		<path fill="#514447" d="M394.909,310.455h210.182c2.209,0,4,1.791,4,4v152.038c0,8.837-7.163,16-16,16H394.909
			c-2.209,0-4-1.791-4-4V314.455C390.909,312.246,392.7,310.455,394.909,310.455z"/>
		<g>
			<path d="M593.091,484.493H394.909c-3.309,0-6-2.691-6-6V314.455c0-3.309,2.691-6,6-6h210.182c3.309,0,6,2.691,6,6v152.038
				C611.091,476.418,603.016,484.493,593.091,484.493z M394.909,312.455c-1.103,0-2,0.897-2,2v164.038c0,1.103,0.897,2,2,2h198.182
				c7.72,0,14-6.28,14-14V314.455c0-1.103-0.897-2-2-2H394.909z"/>
		</g>
		<path fill="#83906F" d="M432.818,337.948h134.364c0.552,0,1,0.448,1,1v123.455c0,0.552-0.448,1-1,1H432.818c-0.552,0-1-0.448-1-1
			V338.948C431.818,338.396,432.266,337.948,432.818,337.948z"/>
		<g>
			<path d="M567.182,465.403H432.818c-1.654,0-3-1.346-3-3V338.948c0-1.654,1.346-3,3-3h134.364c1.654,0,3,1.346,3,3v123.455
				C570.182,464.057,568.836,465.403,567.182,465.403z M433.818,461.403h132.364V339.948H433.818V461.403z M567.182,339.948h0.01
				H567.182z"/>
		</g>
		<g>
			<path d="M650,283.818H350c-1.104,0-2-0.896-2-2v-13.636c0-8.622,7.014-15.637,15.636-15.637h272.729l0,0
				c8.622,0,15.636,7.015,15.636,15.637v13.636C652,282.922,651.104,283.818,650,283.818z M352,279.818h296v-11.636
				c0-6.417-5.22-11.637-11.636-11.637H363.636c-6.416,0-11.636,5.221-11.636,11.637V279.818z"/>
		</g>
		<g>
			<path d="M609.091,510.182h-80.455c-1.104,0-2-0.896-2-2s0.896-2,2-2h80.455c1.104,0,2,0.896,2,2S610.195,510.182,609.091,510.182
				z"/>
		</g>
		<g>
			<path d="M471.364,510.182h-80.455c-1.104,0-2-0.896-2-2s0.896-2,2-2h80.455c1.104,0,2,0.896,2,2S472.469,510.182,471.364,510.182
				z"/>
		</g>
		<path fill="#664A4A" d="M407.518,580.227h67.238c2.52,0,4.563,2.043,4.563,4.563v13.147c0,2.52-2.043,4.563-4.563,4.563h-67.238
			c-2.52,0-4.563-2.043-4.563-4.563V584.79C402.955,582.27,404.998,580.227,407.518,580.227z"/>
		<path fill="#664A4A" d="M434.562,553.182h13.148c2.52,0,4.562,2.042,4.562,4.562l0,0v67.239c0,2.52-2.042,4.562-4.562,4.562h0
			h-13.148c-2.52,0-4.562-2.042-4.562-4.562v0v-67.239C430.001,555.225,432.043,553.183,434.562,553.182z"/>
		<g>
			<path d="M446.051,631.547h-9.375c-4.533,0-8.221-3.688-8.221-8.221v-18.921c0-0.071-0.059-0.13-0.131-0.13h-19.148
				c-4.409-0.005-7.994-3.594-7.994-8v-9.829c0-4.408,3.586-7.994,7.994-7.994h19.145c0.072,0,0.131-0.059,0.131-0.131v-19.375
				c0-4.283,3.484-7.768,7.767-7.768h9.829c4.533,0,8.222,3.688,8.222,8.222v18.924c0,0.072,0.059,0.131,0.131,0.131h19.152
				c0,0,0.002,0,0.002,0c4.406,0,7.991,3.584,7.992,7.99v9.376c0,4.658-3.79,8.448-8.448,8.448h-18.697
				c-0.072,0-0.13,0.059-0.13,0.131v18.926C454.272,627.859,450.584,631.547,446.051,631.547z M409.176,582.452
				c-2.202,0-3.994,1.792-3.994,3.994v9.829c0,2.203,1.792,3.997,3.996,4h19.146c2.277,0,4.13,1.853,4.131,4.129v18.922
				c0,2.327,1.894,4.221,4.221,4.221h9.375c2.328,0,4.222-1.894,4.222-4.221V604.4c0-2.277,1.853-4.131,4.13-4.131H473.1
				c2.453,0,4.448-1.995,4.448-4.448v-9.375c0-1.065-0.416-2.068-1.17-2.822c-0.754-0.754-1.756-1.169-2.822-1.169
				c0,0-0.001,0-0.001,0h-0.003H454.4c-2.278-0.002-4.13-1.855-4.13-4.131V559.4c0-2.328-1.895-4.222-4.222-4.222h-9.829
				c-2.077,0-3.767,1.69-3.767,3.768v19.375c0,2.277-1.854,4.131-4.131,4.131H409.176z"/>
		</g>
		<path fill="#FCA84C" d="M557.085,629.165c-11.296-0.005-20.45-9.166-20.446-20.462c0.002-5.418,2.154-10.614,5.983-14.447
			l34.712-34.711c7.988-7.988,20.939-7.988,28.927,0s7.988,20.939,0,28.927l0,0l-34.713,34.712
			C567.719,627.029,562.511,629.183,557.085,629.165z"/>
		<path opacity="0.66" fill="#FCA84C" enable-background="new    " d="M544.18,623.183c-7.976-7.993-7.976-20.934,0-28.927
			l34.713-34.711c3.64-3.649,8.533-5.774,13.684-5.944c-0.26-0.01-0.517-0.038-0.779-0.038c-5.427-0.018-10.635,2.136-14.464,5.982
			l-34.712,34.711c-7.988,7.982-7.993,20.927-0.011,28.915c3.838,3.84,9.045,5.997,14.474,5.994c0.262,0,0.519-0.029,0.779-0.038
			C552.713,628.956,547.82,626.831,544.18,623.183z"/>
		<circle fill="#FF1F1F" cx="591.797" cy="574.007" r="13.636"/>
		<circle fill="#FF1F1F" cx="557.085" cy="608.72" r="13.636"/>
		<g>
			<path d="M591.797,589.643c-8.621,0-15.636-7.015-15.636-15.636s7.015-15.636,15.636-15.636s15.636,7.015,15.636,15.636
				S600.418,589.643,591.797,589.643z M591.797,562.371c-6.416,0-11.636,5.22-11.636,11.636s5.22,11.636,11.636,11.636
				s11.636-5.22,11.636-11.636S598.213,562.371,591.797,562.371z"/>
		</g>
		<g>
			<path d="M557.085,624.355c-8.621,0-15.636-7.015-15.636-15.636s7.015-15.636,15.636-15.636s15.636,7.015,15.636,15.636
				S565.706,624.355,557.085,624.355z M557.085,597.084c-6.416,0-11.636,5.22-11.636,11.636s5.22,11.636,11.636,11.636
				s11.636-5.22,11.636-11.636S563.501,597.084,557.085,597.084z"/>
		</g>
		<g>
			<path d="M474.098,686.1c-1.28,0-2.561-0.487-3.535-1.462l-2.104-2.104c-0.944-0.943-1.464-2.199-1.464-3.535
				c0-1.335,0.52-2.591,1.464-3.535l21.14-21.139c0.944-0.944,2.2-1.465,3.535-1.465s2.591,0.521,3.535,1.465l2.103,2.103
				c0.945,0.944,1.465,2.2,1.465,3.535c0,1.336-0.521,2.592-1.465,3.536l-21.138,21.139
				C476.659,685.612,475.378,686.1,474.098,686.1z M493.134,656.86c-0.155,0-0.452,0.038-0.707,0.293l-21.14,21.139
				c-0.254,0.255-0.292,0.553-0.292,0.707c0,0.155,0.038,0.452,0.292,0.707l2.104,2.104c0.389,0.389,1.024,0.39,1.415-0.001
				l21.138-21.139c0.255-0.255,0.293-0.552,0.293-0.707c0-0.154-0.038-0.452-0.293-0.707l-2.103-2.103h0
				C493.586,656.898,493.289,656.86,493.134,656.86z"/>
		</g>
		<g>
			<path d="M508.315,686.102c-1.335,0-2.591-0.521-3.535-1.465l-2.103-2.103c-0.944-0.944-1.465-2.2-1.465-3.535
				c0-1.336,0.521-2.592,1.465-3.536l21.139-21.139c1.949-1.949,5.12-1.948,7.071-0.001c0,0.001,0,0.001,0,0.001l2.103,2.104
				c0.944,0.943,1.465,2.199,1.465,3.535c0,1.335-0.521,2.591-1.465,3.535l-21.139,21.139
				C510.907,685.581,509.651,686.102,508.315,686.102z M527.353,656.86c-0.257,0-0.514,0.098-0.708,0.293l-21.139,21.139
				c-0.255,0.255-0.293,0.552-0.293,0.707c0,0.154,0.038,0.452,0.293,0.707l2.103,2.103c0.39,0.391,1.023,0.392,1.415,0
				l21.139-21.139c0.255-0.255,0.293-0.553,0.293-0.707c0-0.155-0.038-0.452-0.293-0.706l-2.103-2.104
				C527.865,656.958,527.608,656.86,527.353,656.86z"/>
		</g>
		<g>
			<path d="M593.244,709.785c-0.768,0-1.535-0.293-2.121-0.879l-16.393-16.393c-1.172-1.171-1.172-3.071,0-4.242
				c1.172-1.172,3.07-1.172,4.242,0l16.393,16.393c1.172,1.171,1.172,3.071,0,4.242
				C594.779,709.492,594.012,709.785,593.244,709.785z"/>
		</g>
		<g>
			<path d="M582.637,720.391c-0.768,0-1.535-0.293-2.121-0.879l-16.392-16.392c-1.172-1.171-1.172-3.071,0-4.242
				c1.172-1.172,3.07-1.172,4.242,0l16.392,16.392c1.172,1.171,1.172,3.071,0,4.242
				C584.172,720.098,583.404,720.391,582.637,720.391z"/>
		</g>
		<g>
			<path d="M604.814,698.214c-0.768,0-1.535-0.293-2.121-0.879l-16.393-16.392c-1.172-1.171-1.172-3.07,0-4.242s3.07-1.172,4.242,0
				l16.393,16.392c1.172,1.171,1.172,3.07,0,4.242C606.35,697.921,605.582,698.214,604.814,698.214z"/>
		</g>
		<g>
			<path d="M615.421,687.607c-0.768,0-1.535-0.293-2.121-0.879l-16.392-16.393c-1.172-1.172-1.172-3.071,0-4.242
				c1.172-1.172,3.07-1.172,4.242,0l16.392,16.393c1.172,1.172,1.172,3.071,0,4.242
				C616.956,687.314,616.188,687.607,615.421,687.607z"/>
		</g>
		<g>
			<path d="M626.028,677.001c-0.768,0-1.535-0.293-2.121-0.879l-16.393-16.392c-1.172-1.171-1.172-3.07,0-4.242s3.07-1.172,4.242,0
				l16.393,16.392c1.172,1.171,1.172,3.07,0,4.242C627.563,676.708,626.796,677.001,626.028,677.001z"/>
		</g>
		<g>
			<path d="M619.319,283.818H381.364c-1.104,0-2-0.896-2-2v-27.273c0-1.104,0.896-2,2-2h237.955c1.104,0,2,0.896,2,2v27.273
				C621.319,282.922,620.424,283.818,619.319,283.818z M383.364,279.818h233.955v-23.273H383.364V279.818z"/>
		</g>
		<g>
			<path d="M509.091,327.455h-97.727c-1.104,0-2-0.896-2-2s0.896-2,2-2h97.727c1.104,0,2,0.896,2,2S510.195,327.455,509.091,327.455
				z"/>
		</g>
		<g>
			<path d="M592.727,327.455h-31.362c-1.104,0-2-0.896-2-2s0.896-2,2-2h31.362c1.104,0,2,0.896,2,2S593.831,327.455,592.727,327.455
				z"/>
		</g>
		<g>
			<path d="M485.227,513.761c-1.104,0-2-0.896-2-2v-7.159c0-1.104,0.896-2,2-2s2,0.896,2,2v7.159
				C487.227,512.865,486.332,513.761,485.227,513.761z"/>
		</g>
		<g>
			<path d="M495.076,513.761c-1.104,0-2-0.896-2-2v-7.159c0-1.104,0.896-2,2-2s2,0.896,2,2v7.159
				C497.076,512.865,496.181,513.761,495.076,513.761z"/>
		</g>
		<g>
			<path d="M504.924,513.761c-1.104,0-2-0.896-2-2v-7.159c0-1.104,0.896-2,2-2s2,0.896,2,2v7.159
				C506.924,512.865,506.028,513.761,504.924,513.761z"/>
		</g>
		<g>
			<path d="M514.773,513.761c-1.104,0-2-0.896-2-2v-7.159c0-1.104,0.896-2,2-2s2,0.896,2,2v7.159
				C516.773,512.865,515.878,513.761,514.773,513.761z"/>
		</g>
	</g>
</g>
</svg>