<?xml version="1.0" encoding="utf-8"?>
<!-- Generator: Adobe Illustrator 27.0.0, SVG Export Plug-In . SVG Version: 6.00 Build 0)  -->
<svg version="1.1" id="Layer_1" xmlns="http://www.w3.org/2000/svg" xmlns:xlink="http://www.w3.org/1999/xlink" x="0px" y="0px"
	 viewBox="0 0 1920 1080" style="enable-background:new 0 0 1920 1080;" xml:space="preserve">
<style type="text/css">
	.st0{fill:#1A1A1A;}
	.st1{fill:none;stroke:#FFFFFF;stroke-width:5;stroke-linecap:round;stroke-linejoin:round;stroke-miterlimit:10;}
	.st2{opacity:0.31;fill:none;stroke:#FFFFFF;stroke-width:3;stroke-linecap:round;stroke-linejoin:round;stroke-miterlimit:10;}
	.st3{fill:none;stroke:#FFFFFF;stroke-width:4;stroke-linecap:round;stroke-linejoin:round;stroke-miterlimit:10;}
</style>
<rect y="0" class="st0" width="1919.7" height="1080"/>
<g>
	<g>
		<path class="st1" d="M1441.6,1078.9c-1-6.2-2.4-12.3-2.9-18.5c-1-11-1.4-22-2.1-33c-0.9-16.3-6.2-30.8-17.4-43.1
			c-7.2-7.9-16.1-13.3-25.2-18.3c-9.6-5.2-15.6-13-21-22.1c-8.1-13.4-13.1-28-18.3-42.6s-11.6-28.5-20.1-41.5
			c-8.1-12.4-7.8-24.8,0.1-37c4.8-7.5,9.9-14.7,15-22c6.3-9.2,9.9-19.7,14-30c1.4-3.6,3-7.2,5-10.5c4.7-7.4,12.4-9.8,20.4-11
			c12.6-1.9,23.8,1.6,34.5,8.3c9.2,5.8,18.5,11.9,28.5,15.8c18.3,7.2,31.9,2,39.2-17.8c2.4-6.5,3.6-13.6,4-20.5
			c1-18.5,7.6-27.8,25.2-33c15.2-4.5,30.3-9.2,45.5-13.4c15.8-4.4,32.1,2.8,39.4,17.5c4.7,9.4,8.2,19.4,12.7,28.9
			c5.2,11,14.7,16.2,26.4,17c11.3,0.7,22.7,0.4,34,1.2c9.7,0.7,19.5,1.6,29,3.5c15.7,3.2,25.1,14.2,31,28.4
			c3.2,7.8,5.3,15.9,5.1,24.5c-0.1,6.2,1.4,12.4,0.7,18.5c-1.2,11.8-0.1,23.9-3.7,35.6c-2.8,9-6.3,17.5-12.7,24.4
			c-11.9,12.9-25.4,23.9-40.4,33.1c-15,9.1-31.1,10.2-47.4,5.3c-7.6-2.3-15.1-5.9-22-9.9c-14-8.1-15.2-21.6-9.6-34.4
			c4.3-9.7,9.4-19.1,12.8-29.1c5.6-16.1,4.2-32.3-2.5-47.9c-2.7-6.3-6.8-12-13.8-14.6c-8.3-3.1-16-1-21.9,4.7
			c-17,16.2-32.7,33.5-43.1,54.9c-5.4,11.1-10.7,22.3-16,33.5c-2.7,5.7-5.7,11.2-7.9,17c-3.7,9.6-1,18.1,5.9,25.5
			c8,8.5,17.8,14.4,27.4,20.6c11.3,7.2,22.7,14.5,33.4,22.6c9.1,6.9,13.2,17.3,14.5,28.4c1.6,13.1,2.5,26.3,3,39.5
			c0.5,12.7-2.2,24.8-8.4,36c-1,1.8-1.7,3.7-2.5,5.5"/>
		<path class="st2" d="M1457.6,1078.9c-1.9-10.4-4.5-20.8-2.1-31.5c1.6-6.9,2.5-14.1,4.1-21c2.7-11.3,0.6-21.5-6.6-30.5
			c-8.9-11.2-17.7-22.7-27.7-32.8c-7.3-7.4-16.3-13.1-24.8-19.2c-16.2-11.6-26.8-27.2-34-45.5c-5.8-15-11.6-30-17.5-45
			c-4.3-10.9-3.4-21.5,3.2-30.9c8.9-12.8,19-24.8,31.3-34.6c15.8-12.6,22-10.2,36.4-0.4c9.4,6.4,19.2,12.2,30.1,15.2
			c8.3,2.3,16.9,3.9,25.5,4.5c13.3,1,22.4-5.7,28.5-17.3c6.1-11.5,9.5-23.8,11.4-36.5c0.7-4.8,1.8-9.7,2.5-14.5
			c1.9-14.1,11.3-20.8,24-24c7.1-1.7,14.3-3.5,21.5-4.4c9.9-1.3,20.4,9,21.1,19.4c0.6,10.8-3.9,19.7-9.7,27.9
			c-13.1,18.8-26.2,37.5-43.3,53.2c-5.2,4.8-9.8,10.5-13.4,16.5c-3.4,5.8-5.3,12.5-7.7,18.9c-6.3,16.8-16.4,31.7-25.4,47
			c-5.8,9.9-8.9,21-2.9,31.8c4.4,8.1,12.2,13.1,20.3,17.7c20.4,11.5,40.8,23.2,61,35c11.3,6.6,17.8,17,20.4,29.5
			c2.6,12.9,4.6,26,0.5,38.9c-1.7,5.3-4.3,10.4-7.5,15c-4.7,6.9-10.4,12.9-17.9,17.1"/>
		<path class="st2" d="M1628.5,1078.9c0.7-5.2,2-10.3,1.8-15.5c-0.2-6.5-1.2-13.1-2.4-19.5c-2.4-13.4-4.7-26.9-3.3-40.5
			c1.6-16.4,5.3-32.4,21-41.3c7.8-4.4,16.7-7.1,25.4-9.6c13-3.8,25-9.1,36-17.1c7.3-5.3,14.8-10.4,22.5-15
			c16-9.4,25.4-23.9,31.8-40.6c5.5-14.2,10-28.7,15.2-42.9c1.1-3.1,2.6-6.2,4.5-9c8-11.9,16.4-23.6,24.4-35.6
			c6.8-10.2,16.9-11.6,25-6.3c4.9,3.2,9.6,7.1,13.5,11.5c9.8,11.4,15.7,24.8,19.8,39.3c2.6,9.4,7,18.3,15.8,24.1
			c2.7,1.8,4.6,4.8,7.1,6.9c4.9,4.1,4.8,9.2,2.9,14.5c-2.7,7.6-6.4,14.8-8.2,22.6c-2.1,9-3,18.2-3.6,27.5c-1,16.1-1.3,32.3-2.2,48.5
			c-0.3,5.5-0.9,11.1-2,16.5c-2.2,10.5-8.6,18.4-18.5,22.4c-13.3,5.3-26.8,10.1-40.5,14.6c-17.1,5.6-33.8,3.4-50-3.9
			c-6.2-2.8-12.4-5.5-19.5-5.1c-7,0.4-12.5,3.3-14.9,10.1c-1.5,4.1-2.2,8.6-2.5,13c-0.6,10.2-0.8,20.3-1.1,30.5"/>
		<path class="st2" d="M1.5,193.5c7.7-1.5,14.9-4.1,21-9.4c10-8.6,15.5-19.5,18.5-32.1c3.8-15.9,4.7-32.5,10.5-48
			c1.3-3.4,2.3-6.8,4-10c4.5-8.2,10.8-11.1,22.4-7.9c9.4,2.6,18.4,6.4,27.5,9.9c10.6,4,21,8.3,31.5,12.5c4.2,1.7,8.9,2.6,11.5,7
			c2.7,4.6,2.3,9.4,0.9,14c-6.1,20.5-17.7,37.2-36.5,47.9c-7.2,4.1-15.4,6.5-22.9,10.2c-6.3,3.1-12.9,6.3-18.4,10.6
			c-10.4,8-22.1,12.3-34.6,15.4c-6.3,1.6-12.4,3.4-17.6,7.9c-7.3,6.3-8,14.4-5.8,22.5c4,14,11.8,26.1,21.8,36.5
			c16.1,16.7,34.3,30.8,52.9,44.6c5.2,3.9,10.3,8.6,13.9,14c9.6,14.2,9.4,24.9-3.4,39.8c-8.1,9.4-16,9.2-25.9,4.5
			c-3.2-1.5-6.1-3.5-9-5.5c-8.7-5.9-14.7-14.4-21-22.5c-11-14.3-25-24.8-41.5-32"/>
		<path class="st2" d="M646.3,1078.4c-7.6-12.2-19.3-20.8-27.9-32.1c-6.8-8.9-10.1-19.6-12.5-30.4c-1.7-7.7-2.4-15.6-3.1-23.5
			c-0.9-10.1-1.1-20.3-2.1-30.5c-1-10.5-6.2-19.2-13-27c-3.5-4.1-7.8-7.5-11.4-11.6c-5-5.8-10.8-11.4-14.3-18.1
			c-7.8-14.7-3.5-29.1,15.3-32.9c16.2-3.3,31.6-0.3,47,4.5c11.8,3.6,24.2,4.2,36.4,5.8c7.3,1,14.9,3.1,21.4,6.5
			c13.7,7.1,26.8,15.5,40.1,23.3c12.9,7.6,23.3,18,31.9,30.1c14,19.6,32.3,34,53.6,44.3c18,8.7,30.9,21.7,40.2,39.5
			c9.3,17.8,20.7,34.5,31.2,51.6c0.2,0.3,0.7,0.3,1,0.5"/>
		<path class="st1" d="M1608.5,1078.9c1.5-6.3,3.7-12.6,4.3-19c0.8-8.3,0.4-16.7,0.1-25c-0.2-5.2-1.3-10.3-1.4-15.5
			c-0.2-19.7-0.1-39.3-0.1-59c0-6.7,2.9-10.8,9.5-12.4c6.4-1.5,13-3.3,19.5-3.4c25.9-0.6,49.5-7.4,69.5-24.6
			c7.1-6.1,14.9-11.4,21.9-17.6c14.5-12.9,21.5-29.6,24.6-48.4c2.1-12.8,3.5-25.7,7.9-38c2.6-7.4,5-14.9,6.9-22.5
			c1.2-4.7,1.6-9.6,2.1-14.5c0.5-5.5,0.6-11,1.1-16.5c0.3-3.2,4.8-6.7,8.4-7c7.2-0.7,14.3-1.6,21.5-1.9c13.6-0.5,26.3,1.8,36,12.5
			c13.5,14.9,27.7,29.2,39,46c4.6,6.7,8.7,13.9,14.1,19.9c7,7.6,16.5,11.7,26.3,14.6"/>
		<path class="st2" d="M803.3,1078.4c-7.6-7.4-14.3-15.9-24.5-19.9c-8.3-3.2-16.8-5.8-25.5-8c-10-2.5-15.9-8.8-19.5-18.1
			c-3.2-8.1-6.4-16.3-10.6-23.9c-3.9-7.1-10.3-9.6-17.8-6.9c-6,2.1-11.6,5.5-17,8.9c-5.6,3.5-10.4,8.2-16.1,11.3
			c-11.3,6-22.9,1.4-28.9-6.9c-7.2-10-9.4-21-7.8-33.5c1.4-10.8,3.7-21.1,7.8-30.9c5-12.1,14.7-18.9,27.4-19.8
			c10-0.7,20.2-1.2,30,3.2c8.8,3.9,15.2,9.9,20.5,17.6c5,7.3,9.9,14.7,15.6,21.4c3,3.5,7.6,6,11.9,8.1c23,11,43.7,25.6,62.8,42.2
			c11.5,10,17.5,23.9,23.1,37.9c2.4,5.9,5,11.7,7.5,17.5"/>
		<path class="st2" d="M672.3,1078.4c-0.5-1-1.4-2-1.4-3c-0.1-9.4-3.8-16.4-12-21.6c-8-5.1-15.8-10.8-23-17
			c-10.2-8.8-14.7-20.9-15.9-33.9c-1.1-11.6-1.3-23.3-1-35c0.3-15.4-4.4-29-12.1-42c-2.9-5-6.2-9.8-6-16c0.1-5.7,3.7-9.5,9.5-9.5
			c10.8,0.2,21.7,1.2,32.5,0.8c16-0.5,30.6,4.3,45,10.2c8.6,3.5,17.3,7.1,25.4,11.6c9.2,5.1,16.5,12.8,22.5,21.4
			c8.7,12.3,19.4,22.4,32,30.5c13.3,8.5,26.5,17.3,40,25.4c12.9,7.8,22.6,18.2,29.5,31.5c7.8,14.9,15.9,29.7,24,44.5
			c0.4,0.8,1.3,1.3,2,2"/>
		<path class="st2" d="M1403.1,0.6c-5.6,9.2-12.3,17.4-21.4,23.6c-10.6,7.2-22.5,9.7-34.6,12.5c-9.9,2.3-20,4.5-29.4,8.1
			c-13.5,5.2-22.5,15.8-29.7,28.2c-6.5,11.3-9.1,23.5-11.4,36.1c-3.2,17.4-9.9,24.6-26.9,26.5c-5.5,0.6-11,2.1-16.5,1.8
			c-10.4-0.5-20.7-1.4-30.1-7.2c-7.2-4.5-8.7-7.9-4.9-15.6c4.2-8.7,9-17.1,12.3-26.1c4.7-12.8,2.3-24.1-7.7-34.6
			c-13.7-14.5-30.7-20.8-49.7-23.4c-6.7-0.9-13.3-2.7-20-3.3c-6.6-0.6-13.3,0-20-0.2c-5.7-0.1-11.4-0.3-17-1.1
			c-3.4-0.5-6.3-2.8-7.5-6.4c-2.1-6.5-4-13-6-19.5"/>
		<path class="st2" d="M1235.1,1078.4c-11.7-4.5-23.4-8.9-35-13.5c-5.6-2.2-11-4.9-16.5-7.5c-15.5-7.2-18.6-15.3-8.8-31.8
			c6.7-11.3,15-21.8,23.9-31.5c12.2-13.2,24.6-26.1,35.9-40.1c6.7-8.3,15.3-14.5,24.9-19c13.5-6.3,25.7-14.2,35.5-25.5
			c1.8-2.1,4.1-4,6.5-5.5c7.1-4.6,12.7-3,17.9,1c5.5,4.2,8.3,10.5,9.9,17c4.3,16.7,9.6,33.1,14.9,49.5c4.7,14.7,8.6,29.7,8.3,45.4
			c-0.1,5.6-1.7,10.5-4.7,15c-1.6,2.5-3.5,4.8-5.5,7c-12.1,13.2-24.3,26.3-36.5,39.5"/>
		<path class="st2" d="M1919.4,823c-7.8-4.2-13.8-10.3-19.1-17.5c-5.8-7.9-12.2-15.2-19.8-21.7c-11.2-9.4-18.8-21.5-23.6-35.4
			c-2.7-7.8-7.7-14-13.1-20c-4-4.5-8.4-8.6-12.4-13c-3.4-3.7-4.6-8.4-2.9-12.9c4.2-11.4,4-23.2,3.9-35c-0.1-11.3-0.7-22.7,0.1-34
			c1-14.2,1-28.7,6.9-42c4.1-9.2,8.9-18.2,13.9-27c7.6-13.3,15.2-26.6,23.6-39.5c5.9-9.1,12.7-17.5,19.4-26
			c7.4-9.5,12.6-19.5,13.2-32c0.4-8.7,1.1-17.8,6.3-25.5c1.4-2.1,2.5-4.3,3.8-6.5"/>
		<path class="st2" d="M754.8,0.1c-2.4,10.2-7.9,18.8-14,27c-8.9,12-18.2,23.8-26.9,36.1c-6.6,9.4-12.3,19.3-18.6,28.9
			c-3.1,4.7-7.3,8.7-9.8,13.6c-3.5,6.7-5.9,13.9-8.6,20.9c-1.6,4.2-3,8.3-7.5,10.5c-9.3,4.6-18.3,1.2-24.1-9
			c-5.4-9.6-10.8-19.4-17.1-28.4c-4.6-6.5-10.6-12-16.4-17.6c-5.1-4.9-10.5-9.5-16-14c-6.8-5.6-14.7-9-23.5-9.4
			c-8.3-0.4-16,2.5-23.5,5.9c-6.3,2.8-12.5,5.8-19,7.9c-8.8,2.8-17.5,3.1-26.6-1.2c-8-3.8-10.1-10.6-12.4-17.7
			c-2.6-8.3,0.2-16.4,1.5-24.5c1.5-9.7,3-19.3,4.5-29"/>
		<path class="st2" d="M332.9,1078.9c0.2-15.6,2.8-30.7,8-45.5c4-11.6,1.4-18.3-8.9-25.5c-9.7-6.8-20.6-10-32-12.5
			c-12.4-2.7-13.9-10.7-7.9-19.4c10.5-15.1,24-27.2,39.9-36.5c3.1-1.8,6.5-3.1,10-4c7.3-1.8,14.9,2.6,17.4,10.4
			c5.4,16.6,7,33.6,4.7,51c-0.8,6.3-1.9,12.7,2.1,19.1c3,4.8,7.6,6.8,11.7,9.9c6.3,4.7,12.8,9.2,19,14c7.2,5.7,9.3,14.1,10.9,22.5
			c1,5.4,0.8,11,1.1,16.5"/>
		<path class="st2" d="M969.7,0.1c-0.5,2.7-0.9,5.4-1.5,8c-2.8,11.4-11.1,19.2-19.7,25.8c-12.4,9.5-26.1,17.1-41.8,21
			c-11.7,2.9-22.4,1.1-33-3.3c-8.1-3.3-16-7.4-24-10.9c-14-6-27.7-6.4-41,2.4c-7.2,4.8-10,12.2-12.9,19.6c-2.8,6.9-5.4,14-8,21
			c-1.8,4.8-4.8,8.5-9.5,10.4c-1.4,0.6-3.6,0.7-4.9,0c-7.7-3.7-15.6-17.9-14.5-26.4c0.9-7.3,3.5-14,7.9-20
			c6.4-8.6,11.4-18,13.4-28.5c1.2-6.2,1.1-12.6,1.6-19"/>
		<path class="st2" d="M2,156c5.5-5.1,11.6-9.4,14.6-16.9c5.8-14.1,7.9-28.5,5.4-43.6c-2.3-13.2-4.9-26.3-6.9-39.5
			c-2.7-17.7,7.9-33.6,22.4-39.1c7.1-2.7,13.5-1.6,19.5,2.1c8.2,5.2,13.9,13.1,20.1,20.4c7.4,8.7,14.5,17.7,25,23
			c14.9,7.6,27.7,6,39.6-5.9c8.8-8.8,14.1-19.4,18.3-30.6c3.2-8.5,5.4-17.3,8.1-26"/>
		<path class="st2" d="M2,173c0.5-0.5,0.9-1.3,1.5-1.5c15.6-4.7,23.2-16.6,27.4-31.1c3.5-12.2,5.1-24.8,6.3-37.4
			c1-10.9-0.3-22.3,4.9-32.5c1.9-3.8,4.4-7.6,7.5-10.4c7.1-6.4,14.3-2.2,20.8,1.5c10.7,6,20.9,12.8,31.6,18.8
			c8,4.5,16.9,6.6,25.9,6.9c9,0.3,16.8-3.7,23.5-9.8c7.6-7,13.1-15.5,18.1-24.4c6.2-10.9,12.6-21.9,20.1-31.9
			c4.3-5.7,11.1-9.5,16.8-14.2c2.6-2.2,5.3-4.3,8-6.5"/>
		<path class="st2" d="M1918.9,791.5c-7.3-8-14.7-16-22-24c-9.6-10.6-11.3-22.9-8.1-36.5c1.7-7.4,2.6-15,3.5-22.5
			c0.2-1.7-0.7-4.1-1.9-5.4c-15.6-17.1-27.3-36.9-38.3-57.1c-8.4-15.6-8.1-32.4-1.4-48.3c6-14.3,14.2-27.7,21.2-41.6
			c7.6-15,16.1-29.4,28.6-40.9c5.9-5.5,12.9-9.8,19.4-14.6"/>
		<path class="st2" d="M98.5,1078.4c-8.5-6.8-16.9-13.8-25.5-20.5c-10.9-8.6-21.9-17.1-33-25.5c-11.3-8.6-20.4-18.8-24-33
			c-1.5-5.7,0-9.7,5.6-11.5c10.3-3.2,20.9-3,31.5-2.4c6.9,0.4,13.7,2,20.5,3.4c16.7,3.4,30.8,12.2,44.5,21.9
			c9.1,6.5,15.2,15.6,20.3,25.1c7.5,14,13.8,28.6,20.7,42.9"/>
		<path class="st2" d="M1869.5,0.1c0,6,0.3,12-0.1,18c-0.5,8.2-5.4,14.5-10.5,20.5c-6.7,7.8-15.2,13-24.9,16.7
			c-12.1,4.6-24.3,8.6-37,11.5c-12.7,2.9-24.8,1.7-37-1.7c-7.3-2-14.7-4.1-22-6c-1.8-0.5-3.7-0.5-5.5-0.5c-9.2,0-18.3,0-27.5,0
			c-7.1-0.1-11-3.3-13.6-10c-2.6-6.8-2.4-13.7-0.9-20.5c2.1-9.4,4.6-18.7,6.9-28"/>
		<path class="st2" d="M739.8,0.1c-2.7,10-8.9,18-15.6,25.4c-11,12.3-22.5,24.1-33.9,36c-4.5,4.7-9,9.5-14,13.4
			c-13.3,10.4-25,10.9-39.3,0.9c-8.1-5.6-15-12.9-22.6-19.3c-4.7-4-9.5-7.8-14.5-11.5c-6.7-4.9-14.6-6-22.5-6.5
			c-7.1-0.4-14.3,0.1-21.5-0.1c-5.2-0.2-10.4-0.6-15.5-1.5c-13.4-2.3-21.3-10.8-24.9-23.5c-1.3-4.4-1.7-9-2.6-13.5"/>
		<path class="st2" d="M1620,0.6c-5,15.2-9.7,30.4-15.1,45.5c-4.2,11.6-11.6,21.2-21.5,28.4c-11.7,8.6-23.8,16.6-35.9,24.6
			c-8.2,5.3-17.1,7.7-27,5.6c-6.4-1.4-11.9-7.6-13.1-14c-1.5-8.1,0.8-15.8,2.2-23.5c2-10.9,4.8-21.6,6.9-32.5
			c1.6-8.6,5.9-15.6,11.5-22c3.3-3.8,6.1-8,9.1-12"/>
		<path class="st2" d="M459.9,0.1c-3.5,11.2-7,22.3-10.5,33.5c-0.5,1.7-0.5,3.7-0.5,5.5c-0.4,10-0.9,20-1,30
			c-0.1,10.8-9.3,19.9-20.6,22.4c-5,1.1-10.3,1.2-15.5,1c-4.8-0.2-9.2-1.9-13.1-5.3c-8.4-7.4-13.3-17.4-19.9-26.1
			c-12.2-16.2-18.6-34.9-23-54.5c-0.5-2.1-0.7-4.3-1-6.5"/>
		<path class="st2" d="M2,511c1,0.5,2,1.4,3,1.4c11.5,0.6,16.6,6,17,17.6c0.3,8.8,0.3,17.7,1.1,26.5c0.7,8.4,1.9,16.7,3.5,25
			c3.3,17.5,7.3,35,10.3,52.5c1.3,7.5,2.2,15.2-0.7,23c-2.6,7.1-6.9,11.4-14.7,11.4c-6.7,0-13.3-0.6-20-0.9"/>
		<path class="st2" d="M716.3,0.6c-4.5,10-11.4,18-20.5,24c-8.7,5.7-17.7,11-26.5,16.6c-11.1,7.1-21.4,2.9-28.5-4.1
			c-6.7-6.6-12.8-13.9-19.6-20.3c-3.8-3.6-8.3-6.6-13-9c-7.5-3.9-15.5-2.7-22.9,0.5c-7.6,3.3-15.2,6.1-23.5,6.4
			c-12.6,0.5-23.7-2.1-30.5-14"/>
		<path class="st2" d="M1756.5,1078.9c1.1-10.3,8.7-18.3,19-19.5c21.5-2.4,42-8.3,62-16.4c12.5-5.1,25.7-6.2,38.9-3.1
			c4.1,1,8.1,2,12,3.5c3.9,1.6,5.1,4.3,4.2,9c-1.6,8.7-2.2,17.6-3.2,26.5"/>
		<path class="st2" d="M1918.9,327.5c-8.7-11.5-17.2-23.1-23.1-36.5c-7.6-17.2-14-34.8-16.4-53.5c-1.1-8.3-3.1-16.7-2.7-25
			c0.3-7.4,0.3-15.3,5.1-22.1c5.2-7.5,12.6-10.6,21.1-11.9c5.6-0.8,11.3-1.4,17-2"/>
		<path class="st2" d="M1919.9,664.5c-24.4-0.7-42.5-11.8-54.5-33c-5.6-9.9-5.1-20.1-0.4-30c8.9-18.8,17.9-37.5,27.6-56
			c6-11.5,15.3-20.3,26.9-26.6"/>
		<path class="st2" d="M1254.6,0.1c1,8.3,2,16.7,3,25c0.7,5.5,1.6,11,1.9,16.5c0.5,9-0.3,17.9-5,26c-1.9,3.3-4.9,3.7-6.4,0.5
			c-5.5-12.2-16-19-26.6-26c-9.2-6-18.1-12.6-27.6-18.4c-8.7-5.3-18-9.6-26.9-14.7c-4.7-2.7-9-5.9-13.5-8.9"/>
		<path class="st2" d="M1919.9,1048.4c-6.2-1.5-12.3-3-18.5-4.5c-4.7-1.2-5.7-5.1-5.9-9c-0.6-8.7-0.5-17.3-1.1-26
			c-0.8-11.5-2.2-23-2.8-34.5c-0.3-6-0.1-12.1,1-18c1.6-8.1,3.5-16.3,6.5-24c3.7-9.5,11.3-15.5,20.8-19.1"/>
		<path class="st2" d="M943.2,0.6c-3.9,19.8-16.3,32.7-34.1,40.3c-11.3,4.8-23,3.2-33.9-2.8c-9-5-17.8-10.5-27.1-14.9
			c-8.2-3.9-16.9-6.7-25.5-9.6c-8-2.7-16.4-4.4-20-13.6"/>
		<path class="st2" d="M1834.5,0.1c2.3,10.9,1.6,21.6-5.7,30.3c-4.3,5.1-10,9.3-15.9,12.4c-7.6,4-16,6.9-24.9,6.6
			c-4.2-0.2-8.7-0.8-12.4-2.5c-12.5-6-24.9-12.2-37-19c-9.1-5.1-12.7-13.8-13-23.9c-0.1-1.3,0-2.7,0-4"/>
		<path class="st2" d="M296.9,0.1c2.3,7.7,6,15.2,6.7,23c1.4,15.2-4,23.7-20.2,26.5c-9.6,1.7-19.3,1.1-29,0.9
			c-2.7,0-5.6-0.5-7.9-1.5c-5.1-2.3-7.7-5.9-5-11.4c4.6-9.4,9.3-18.7,14-28c1.5-3.1,3.3-6,5-9"/>
		<path class="st2" d="M1.5,358.5c16.4,3.4,27,14.4,36,27.5c6.1,8.9,12.7,17.6,15,28.5c1.3,6.3,2.3,12.9,0.3,18.9
			c-2.2,6.4-6.2,9.3-16.3,7.7C25.9,439.4,16.9,434,7,430.5c-1.8-0.6-3.7-1.3-5.5-2"/>
		<path class="st2" d="M433.9,0.1c-1.5,9-3,18-4.5,27c-0.7,4-1.4,8.1-2.5,12c-0.8,2.9-1.9,6-3.5,8.5c-5.5,8.4-14,7.9-21.3,3.4
			c-14.7-9.1-24-22.5-28-39.4c-0.9-3.8-1.4-7.7-2-11.5"/>
		<path class="st2" d="M1919.7,303c-0.1-0.7,0.1-1.6-0.3-2c-10.2-10.1-14.9-23-17.8-36.6c-2.6-12-4.8-24.2-5.9-36.5
			c-0.9-10.6,0.6-21.4,10.9-27.8c3.9-2.4,8.9-3.1,13.4-4.6"/>
		<path class="st2" d="M1919.9,627.5c-8.5-0.2-16.2-3.5-22.3-8.7c-5.9-5.1-6.1-12.7-4.3-20.3c3.5-14.2,6.3-28.6,12.6-42
			c3.1-6.5,7.2-12.4,13.4-16.5"/>
		<path class="st2" d="M142.9,0.1c0.8,10.7-2.1,20.5-7.6,29.5c-5.4,8.7-12.6,15.2-23.9,12.9c-3.3-0.7-6.9-2.2-9.4-4.5
			C90.7,28,84.9,15.1,84,0.1"/>
		<path class="st2" d="M1385.6,0.1c-8.2,15.5-21.5,23-38.5,24.5c-6.8,0.6-13.8,1.6-20.5,0.9c-12.3-1.4-18.5-9.8-21-21.3
			c-0.3-1.3-0.7-2.7-1-4"/>
		<path class="st2" d="M1086.2,1078.4c-8.2-5.7-16.7-10.6-26.5-13c-16.7-4-32.3-1-47,7.5c-3.2,1.8-6.3,3.7-9.5,5.5"/>
		<path class="st2" d="M921.7,0.1c-1.6,14.4-13.4,28.2-28.5,27.4c-7.7-0.4-14.7-3.4-20.4-8.5c-6.7-5.9-13-12.3-19.5-18.4"/>
		<path class="st2" d="M1866.5,1078.9c-1.3-3.5-2.4-7.1-4.1-10.5c-2.9-6-11.9-9.8-18.4-8.6c-15,2.9-28.2,10-41.5,17
			c-1.1,0.6-2.3,1-3.5,1.5"/>
		<path class="st2" d="M75.5,1078.4c-1.5-1.5-3.1-2.9-4.5-4.5c-12.5-13.6-26.7-24.9-43-33.5c-9-4.8-17.7-9.9-26.5-14.9"/>
		<path class="st2" d="M2,621c0.7-13,0.5-26.1,2.2-39c1.5-11.7,0-22.8-2.2-34"/>
		<path class="st2" d="M1918.9,1002.5c-7.5-9.7-10.7-20.8-10.5-33c0.2-10.2,2.8-19.5,11-26.5"/>
		<path class="st2" d="M56,1078.9c-9.5-15.3-24.1-22.6-41-26.4c-4.4-1-9-1.4-13.5-2.1"/>
		<path class="st2" d="M1328.1,1078.4c6.7-4.2,12.4-9.8,20.5-12.1c12.6-3.6,21.6-0.6,28.6,10.6c0.4,0.7,1.3,1,2,1.5"/>
		<path class="st2" d="M352.4,1078.4c1-2.2,1.9-4.4,3-6.5c3.5-7,9.8-10.7,16-9.5c5.7,1.1,11.3,9.1,11.5,16.5"/>
		<path class="st2" d="M1367.1,0.6c-5.3,6.4-12.7,9.6-20.5,9.7c-7.5,0.1-15-2.4-19-10.2"/>
		<path class="st2" d="M573.3,1078.4c-0.5,0-1.2,0.2-1.5,0c-9.4-7.1-18.9-6.3-28.5-0.5c-0.8,0.5-2,0.4-3,0.5"/>
		<path class="st2" d="M1.5,1078.4c10-3.4,20-3.7,30,0"/>
		<path class="st2" d="M1788,0.6c-5.6,7.5-14,7.1-21,4.4c-2.8-1.1-5.4-2.9-8-4.4"/>
		<path class="st2" d="M2,122c0-9,0-18,0-27"/>
		<path class="st2" d="M2,893c1-4.3,2.8-8.7,2.8-13S3,871.3,2,867"/>
		<path class="st2" d="M768.3,1078.4c-2-0.3-4-0.5-6-1c-5.8-1.7-11.3,0.5-17,1"/>
		<path class="st2" d="M1268.1,1065.4c-10.5-2.3-21.2-4.1-31.4-7.2c-7.3-2.2-14.9-5-20.9-9.6c-11.2-8.6-13.8-20.3-7-34.1
			c4-8.1,9.8-15.4,15.4-22.5c8.4-10.7,16.9-21.3,26-31.5c8.3-9.4,20-12,31.9-13c7.8-0.6,15.7-0.6,22.5,4.4
			c15.2,11.3,23.6,26.3,22.8,45.5c-0.3,6.4-2.1,12.9-4.4,19c-6.4,16.7-15.3,31.8-29.8,43.2c-7.6,5.9-15.8,6.2-24.6,5.9"/>
		<path class="st2" d="M1494.1,1065.4c-6.5-3-9-8.4-7.5-15.5c3.4-17,8-33.9,7-51.5c-0.2-3.7-0.9-7.3-0.9-11c0-9.9,5.8-14.3,15.4-12
			c12.9,3.2,24.2,9.8,35.5,16.5c6.2,3.6,12,7.2,16,13.5c12.3,19.2,8,41.3-15,50.6c-11,4.4-22.3,6.4-34,7.5c-5.3,0.5-10.7,1.3-16,2"
			/>
		<path class="st2" d="M1674,1062.4c-3.8-1-7.9-1.5-11.5-3.1c-8.3-3.6-14-10.3-17.4-18.4c-7.3-17.4-8.8-34.9-0.2-52.5
			c5.4-11.1,14.6-17.7,25.6-21.8c16.5-6.2,32.3-13.4,47.1-23.4c8.2-5.5,18-8.8,27.4-12.1c9.1-3.2,14.1-9.5,16.9-18.2
			c4.2-12.8,8.5-25.6,15-37.5c5.6-10.1,10.5-20.7,19.5-28.5c4.4-3.8,9-7.6,15-8.4c9.5-1.3,15.7,2.8,18.9,13
			c4.1,12.6,7.6,25.4,11.6,38c2.7,8.4,7.2,16.5,8.6,25.1c2.1,12.4,2.4,25.3-5.7,36.4c-3.7,5-6.9,6-11.9,3
			c-13.1-7.9-27.5-11.3-42.5-12.4c-3.8-0.3-7.8-1.1-11.5-0.4c-11.5,2.1-10.8,4.2-12.2,14.9c-1.1,8.3,1.2,16.9,1.6,25.5
			c0.5,10.5-2.9,16.8-16.4,19.1c-8.1,1.3-16.4,2.5-23.9,5.7c-9.9,4.2-15.2,13.2-18.6,23.2c-2.5,7.4-4.9,14.8-8.1,22
			c-3.3,7.5-9.9,10.7-17.9,11c-3,0.1-6,0-9,0"/>
		<path class="st2" d="M104.5,1051.4c-17-5.6-32.9-13.2-46.4-25.1c-3.1-2.7-5.5-6.4-7.5-10c-1.7-3-0.8-7.2,3.3-9.5
			c6.6-3.7,13.5-2.2,19.4,0.3c13.3,5.6,24.1,15,34,25.3c2,2.2,3.2,5.2,4.6,7.9c3.5,7.2,1.1,10.9-7,11"/>
		<path class="st2" d="M1248.1,1042.4c-4.9-1.8-10-3-14.1-6.9c-6.5-6.4-6.7-12.9-3.3-20c2.2-4.8,5-9.5,8.5-13.5
			c7.5-8.6,14.7-17.8,23.6-24.8c12.5-10,32.5-3.7,38.6,10.8c2.8,6.7,1.9,14.2-1.4,20.9c-5.2,10.6-12,20.2-21.5,27.5
			c-6.9,5.4-15,6.5-23.5,6.1c-2.2-0.1-4.3,0-6.5,0"/>
		<path class="st2" d="M1673,1033.4c-15-4.8-17-23.9-8.9-37c6.2-10.1,16.4-14.5,27.4-17c8.3-1.9,16-5,23.1-9.9
			c3.2-2.3,7.4-3.2,10.9-5.2c4.2-2.4,5.8,1.1,7.4,3.2c1.6,2.1,0.6,4.4-1.3,6.5c-3.6,3.8-7.6,6.7-12.5,8.5c-8.6,3.1-14.2,9.3-18,17.5
			c-3.2,6.9-6.2,13.9-10.1,20.4c-2.6,4.3-6.2,8.1-10,11.4c-1.7,1.5-4.9,1.2-7.4,1.7"/>
		<path class="st2" d="M528.3,998.5c-5.5-2-11.6-3.3-14.9-8.6c-4.7-7.6-8.8-15.5-8.7-24.9c0.1-5.8,1.1-11.1,3.4-16.6
			c3.2-7.5,13.4-10.7,20.2-8c9.5,3.9,18.3,8.3,24.5,17c4,5.7,4.7,11.5,3,18c-3.4,13-14.8,22.9-27,23"/>
		<path class="st2" d="M1833,996.5c-4.7-2-5.7-4-3.4-10c1.1-2.7,3-5.2,5-7.5c1-1.1,3.5-2.4,4.3-1.9c1.6,1,3.1,3,3.5,4.8
			c1.6,7.5-3,11.4-8.9,14.5"/>
		<path class="st2" d="M1036.2,994.5c-5.3-1.8-10.9-3.2-15.9-5.6c-8.9-4.3-11.4-12.6-8.1-21.9c3.9-11.2,12.4-16.5,23.1-18.3
			c8-1.3,15.8,1.3,19.8,8.9c3.1,6,5.9,12.8,6.4,19.4c0.7,11-5.3,15.7-17.7,17.4c-2.3,0.3-4.7,0-7,0"/>
		<path class="st2" d="M666.3,988.5c-4.7-3.2-5.9-6.9-4-13.5c3.1-10.6,10.2-17.2,21-19.4c5.5-1.1,9.7,1.7,13,5.9
			c1.6,2.1,0.7,9.6-2,11.9c-5.6,4.8-11.3,9.5-17.5,13.4c-2.6,1.6-6.5,1.2-9.9,1.7"/>
		<path class="st2" d="M966.2,977.5c-8.9-2.7-16.3-7.6-22.5-14.5c-6.6-7.2-7.9-17.4-2-26c4.2-6.2,9.3-11.4,15.5-15.5
			c6.2-4.1,12.6-8,18.4-12.6c7.4-5.9,12.7-13.7,16.6-22.4c6.2-13.7,16.5-22.6,31.5-25.5c11.1-2.1,22.2-3.5,33,1.5
			c9.4,4.3,15.9,12.1,14.2,25.5c-2.1,17-12.6,26.1-27.2,32c-9.3,3.7-19.1,6.5-27.9,11.2c-12.5,6.8-19.7,18.8-26.6,30.8
			c-1.7,3-4,5.7-6,8.5c-4,5.8-9.6,8-16.5,7"/>
		<path class="st2" d="M166.4,970.5c-16.9-1.6-32-10.1-48.5-12.7c-11.3-1.8-23-0.7-34.4-1.4c-6.4-0.4-12.8-1.3-19-3
			c-7.9-2.2-13.6-8.4-12.5-16.8c0.9-6.9,6.2-10.3,11.5-13.5c3.7-2.2,7.5-4.3,11.5-6c9.7-4.1,16-11.4,20.5-20.5c2-4,3.6-8.2,6.1-12
			c7-10.6,17.1-16.4,29.4-19.1c13.4-3,26.9-4.6,40.5-4.7c10.1,0,20.3,1.1,29.5,6.3c11.1,6.2,16.6,15.7,17.1,28.5
			c0.7,17.5-4.7,33.5-12.8,48.4c-6,11-15.3,19.7-27.3,24.5c-3.4,1.4-7.3,1.4-10.9,2.1"/>
		<path class="st2" d="M432.4,962.5c-5.3-2-6.1-6.2-5.5-11c0.7-4.8,4.4-7.8,8.1-9.8c3-1.6,5,2,6.3,4.3c3.3,5.7-1.6,14.9-8.4,16.5"/>
		<path class="st2" d="M149.4,940.5c-6.3-2.5-12.8-4.7-19-7.6c-6.2-2.9-11.3-7.7-12.3-14.5c-1.6-10.1,0.8-19.8,7.3-27.9
			c8.6-10.6,20.7-13.9,33.4-16.1c9.4-1.6,18.5-1.1,27.5,2c10.8,3.7,16.5,14.3,13.9,25.5c-3.8,16.6-13.2,29-29,35.9
			c-3.1,1.4-6.6,2.1-10,2.5c-3.8,0.4-7.6,0.1-11.5,0.1"/>
		<path class="st2" d="M1424.1,925.5c-4.8-1.3-9.8-2.4-14.5-4c-14.1-4.8-24.5-14.1-29.9-28c-5.1-13.1-9.7-26.5-13.5-40
			c-5.1-18.3,3.6-30.6,19.9-36.4c6.8-2.4,13.8-1,20.4,0.6c13.6,3.4,27.1,7.3,40.5,11.5c5.1,1.6,10,4.1,14.5,7
			c11,7,13.8,16.8,10.2,29.4c-2.4,8.3-6.4,15.7-10.6,23c-5.3,9.1-11.2,17.9-16.4,27.1c-4.6,8-11.4,10.5-20.1,10"/>
		<path class="st2" d="M1659,914.5c-7.3-1.7-14.4-4-20.5-8.5c-8.1-6-11.6-13.8-7.9-26.5c2.9-9.8,7.1-19.2,9.8-29.1
			c3.9-14.2,4.4-28.8,4.1-43.5c-0.1-6.6,0.1-13,1.8-19.5c2-7.6,6.7-11.9,13.7-14.5c13-4.7,25.6-3.7,36.9,4.2c3.8,2.7,6.6,7.2,9,11.4
			c6.4,11,14,21.5,17.5,34c5.5,19.3,5.4,38.2-7.5,54.9c-11.1,14.4-24.7,26.2-41,34.3c-4.5,2.2-10.2,1.9-15.4,2.7"/>
		<path class="st2" d="M1795,914.5c-10.5-5.1-10.7-9.9-8.9-19.5c1.2-6.3,5.5-11.1,10.4-14.9c3.2-2.5,7.3-2.4,10.9-0.5
			c10.3,5.3,13,26.1,3.5,31.9c-2.4,1.5-5.2,2.4-8,3c-2.4,0.5-5,0.1-7.5,0.1"/>
		<path class="st3" d="M157.4,913.5c-6.9-2.5-8.9-4.6-8.5-9.5c0-0.2,0-0.3,0-0.5c0.6-4.9,5.8-8.8,13.5-10c4.4-0.7,9.4,1.5,10.9,5.5
			c0.7,1.8,0.5,4.7-0.5,6.4c-3.2,5.5-8.2,8.5-14.9,8.1"/>
		<path class="st2" d="M830.3,560.5c-7.3-3.5-11.7-8.7-11.7-17.5c0-7.2,0.9-13.4,7.1-18.1c3.8-2.9,10.2-3.2,14.6-0.5
			c7.9,5,11.3,12.4,10.2,21c-1.1,9.2-9.5,16.7-19.8,15"/>
		<path class="st2" d="M1797,554.5c-3.8-1.4-4.6-4.2-4.6-8c0.1-9.7,1.6-18.9,7.5-27c5.1-7,11.4-11.9,20-13.5
			c7.3-1.4,12.6,4.2,11,11.5c-4.1,18.8-16.4,30-33.5,37"/>
		<path class="st2" d="M1292.1,551.5c-9.4-2.5-15.9-8.5-18.9-17.5c-2.8-8.8-1.3-17.5,4.4-24.9c4.2-5.5,12-6.5,17.9-2.5
			c9.2,6.3,13.7,15.7,14.9,26.4c1.4,12-7.6,19.5-17.9,18.5"/>
		<path class="st2" d="M1461.1,636.5c-8.1-3.4-7.2-4.7-6.2-14.5c1-9.5,6.4-17.2,14.2-23c5.3-3.9,16.4-2.9,19.5-0.1
			c6.4,5.8,10.5,12.1,6.4,21c-3.1,6.8-9.1,10.5-15.5,12.8c-5.7,2-11.9,2.5-17.9,3.7"/>
		<path class="st2" d="M951.2,523.5c-2.5-1.2-5.4-1.9-7.4-3.6c-4.4-3.7-4.2-6.1,0.5-9.4c4.2-3,16.7-3,20.9,0
			c5.2,3.7,4.7,7.9-1.5,10.3c-3.8,1.5-8,1.8-12,2.6"/>
		<path class="st2" d="M708.3,519.5c-11.8-2.2-19.2-9.7-22.8-20.5c-2.9-8.6-3-17.5,5.4-23.9c1.6-1.3,3.5-2.5,5.5-3
			c13-3.3,22-3,29.6,8.9c3.5,5.4,6.8,10.7,8.5,17c2.9,11.2-5.2,18.6-13.1,20.4c-4,1-8.3,0.8-12.5,1.1"/>
		<path class="st2" d="M1410.1,509.5c-8.8-3.1-12.2-7.5-12.5-17c-0.4-12.3,1.7-24,6.3-35.6c8.2-20.5,24.3-29.7,44.7-33.4
			c7.9-1.4,16.2-1.3,23.9-3.3c7.4-1.9,14.8-4.7,21.4-8.5c8.5-4.8,12.5-13.3,13.5-22.8c1-10.1,0.9-20.1-2.3-30
			c-3.1-9.7-8.8-17.2-16.6-23.5c-14.2-11.5-26.9-24.3-35-41c-0.8-1.6-1.4-3.3-2-5c-2.5-6.9-1.2-11.1,4.5-15.5
			c6.9-5.4,15.1-8.1,23.5-9.2c4.3-0.6,9.4,0.5,13.4,2.4c8.1,3.9,15.1,9.3,21.3,16.1c8.8,9.7,17.3,20.3,30.3,25.2
			c6.9,2.6,13.9,5.1,20.4,8.6c6.2,3.3,12.4,7.2,17.4,12c9.7,9.2,20.6,16.3,32.1,23c6.2,3.6,12.2,7.7,17.5,12.5
			c10.7,9.6,10.5,28.1,0.6,38.4c-11.6,12-26.7,17.5-42,22.5c-14.6,4.7-29.8,6.1-45,4.8c-13.4-1.2-21.1,5.8-27.5,15.7
			c-8.8,13.8-17.3,27.7-26,41.5c-3.3,5.2-7.4,9.5-12.9,12.6c-5.7,3.2-11.9,3.9-18.1,4.3c-5.3,0.4-10.7,0.3-16,0
			c-9.2-0.5-18.1,1.3-27,3.5c-2.5,0.6-5,1-7.5,1.5"/>
		<path class="st2" d="M1039.2,496.5c-9.7-1.9-18.1-6.7-26.5-11.4c-9.1-5.1-18.9-8.6-28.9-11.7c-15-4.6-29.6-10.4-44.6-15.2
			c-6.6-2.1-13.8-2.6-20.4-4.7c-12.3-4-22.2-11.5-30.6-21.3c-4.3-5.1-9.5-9.5-13.9-14.6c-6.7-7.7-13.6-15.2-19.4-23.5
			c-8.9-12.9-7.2-24,2-35.8c8.2-10.7,17-21,26-30.9c3.5-3.8,8.2-6.7,12.9-9c6.9-3.4,14.4-1.7,20.3,2.1c11.6,7.3,23,15.1,33.5,24
			c9,7.7,13,18.9,16.3,30.3c1.4,5,3.4,10,6,14.5c4.5,7.6,12.5,9.3,20.4,9.4c17.3,0.3,33.9,3.8,50.4,8.2c12.9,3.4,25.9,4.7,39,3.8
			c11.4-0.8,16.7-6,19.8-19.4c1.6-6.9,1.2-14.3,2.3-21.4c0.7-4.7,2.1-9.4,3.4-14c1.5-5.5,11.2-8.1,16-7.5c8.2,1.1,16.3,2.5,24.5,3.4
			c9.2,1,17.8-1.7,26.5-4.3c7.8-2.4,15.9-4.7,24-5.4c10.4-0.9,20.1,6.7,23.5,16.8c5.4,16,2,30.6-8.1,43.4
			c-6.5,8.2-16.3,10.7-26.4,11.6c-13.5,1.1-27,2.2-40.5,3c-10.1,0.6-20.1,1.5-30,3.9c-8.2,2-13.2,7.2-15.9,14.6
			c-2.1,5.7-3.7,11.6-5,17.5c-5.7,25-21.2,39.3-46.5,43c-3.2,0.5-6.3,0.7-9.5,1"/>
		<path class="st2" d="M1461.1,476.5c-2.5-1-5.2-1.7-7.5-3.1c-5.8-3.5-6.8-8.9-2.5-13.9c6-6.9,14-9.9,22.9-9.9
			c6.4,0,9.6,5.3,7.5,11.4c-3.3,9.4-8.6,15.1-20,15.5"/>
		<path class="st3" d="M1045.7,470c-5.2-1.8-10.2-4.1-15.5-5.4c-10.3-2.6-20.7-4.6-31-7.1c-9.7-2.4-19.2-5.4-24.5-15
			c-3.8-6.9-2-12.5,5-16.5c5.8-3.3,12-6.3,18.5-6.2c5.8,0.1,11.9,1.8,17.4,3.9c5,2,9.6,5.2,14,8.4c6.2,4.3,13.2,6.7,20,9.5
			c4.1,1.7,8.6,3.8,11.3,7.1c4.8,5.9,3,12.9-3.9,17.2c-3.2,2-7.3,2.8-10.9,4.1"/>
		<path class="st2" d="M186.4,464.5c-9.7-3.5-19.5-6.7-28.9-10.6c-7.6-3.1-15.5-4.4-23.5-5.5c-9.6-1.3-19.2-2.5-28.1-7.3
			c-7.5-4-11.2-10.4-12.8-18.1c-1.6-7.3,3.9-16,13-18.8c13.8-4.3,24.6-12.5,35.1-22c8.8-7.9,19.8-12.2,31.4-14.6
			c12.6-2.6,25.3-2.7,38-1.9c21.6,1.4,30.2,22.2,23.3,38.3c-7,16.4-15.2,32.2-23.4,48c-4.7,9-12.9,13.4-23.4,12.6"/>
		<path class="st2" d="M1336.1,454.5c-11.8-2.6-21.8-9-32-15c-10.8-6.5-22.2-10.6-35-9.9c-4.7,0.2-9.3,0.8-14,0.9
			c-5.5,0.1-8.7-2.8-8.4-8.5c0.3-5.4,1.5-10.7,2.4-16c1.8-11,3.5-22,5.5-33c1.9-10.1,1.2-20.6,6.4-30c3.2-5.8,7.5-8.2,14.1-8.6
			c15.4-0.8,27.1,7.3,39,15.1c18.6,12.1,28,30.6,35.5,50.5c4.4,11.8,8.8,23.6,7.9,36.5c-0.4,5.5-2.1,10.3-5.9,14.6
			c-4.4,4.9-9.9,3-15.1,3.4"/>
		<path class="st2" d="M316.4,446.5c-13.1-3.2-15.6-14.3-18.5-25c-2.7-10.3-2.5-21-1.9-31.5c0.6-10,2.4-19.9,7.2-29.1
			c6.6-12.5,17.7-18.1,30.6-20.3c20.9-3.5,41.8-6.6,61-16.6c8.1-4.2,14.6-10.1,20.5-17c3.5-4.1,6.9-8.6,11-11.9
			c11.1-8.9,20.9-8,32.2-0.8c7.4,4.7,13.5,11.7,19.6,18.3c8.3,8.9,16.1,18.4,20.5,30c2.9,7.6,5.7,15.3,1.6,23.5c-3,6-7.7,8.9-14,8
			c-4.5-0.6-9-1.5-13.5-2.5c-17.8-3.9-32.9,0.7-46.1,13.4c-9,8.7-18.6,16.8-28.5,24.5c-7.5,5.9-15.7,10.5-24.9,13.7
			c-14,4.8-26.8,11.9-39.5,19.4c-5.2,3-10.9,4.4-17,4"/>
		<path class="st2" d="M795.3,644.5c-3.3-1.7-6.3-3.8-5.4-8c0.8-3.9,6.9-8.8,10.4-9c3.5-0.2,6.2,2,6.5,5.5c0.7,7-3.6,11.4-11,11.5"
			/>
		<path class="st2" d="M1324.1,430.5c-17.6-6.1-31.8-17.2-44.3-30.6c-2.5-2.7-4-7.1-4.4-10.9c-0.7-6.4-1-13.1,0-19.5
			c2-13,13.6-15.1,23.3-9.5c12.2,7.1,19.3,18.9,26.5,30.5c4.9,7.9,9.1,16.2,11,25.5c1,4.7,0.8,8.8-2.9,12.6
			c-2.7,2.7-5.7,1.6-8.6,1.9"/>
		<path class="st2" d="M924.2,426.5c-14.5-4.5-23.3-16.1-32.9-26.6c-3.4-3.7-5.9-8.1-8.5-12.5c-3.4-5.6-2.7-11.9-0.4-17.4
			c2.6-6.3,6-12.5,10-18c5-7,13.7-11.4,23.9-6.1c15.4,8,24,20.2,25.5,37.5c0.7,8.7,1.7,17.3,1.9,26c0.3,11.9-5.1,17-16.9,17
			c-0.7,0-1.3,0-2,0"/>
		<path class="st2" d="M638.3,423.5c-15.1-2.6-22.3-13.1-27-26.5c-4.1-11.5-6.6-23.3-7.6-35.5c-0.5-6.1,0.2-11.8,1.7-17.5
			c1.4-5.5,4.6-8.9,10-11.1c10.8-4.3,21-1.9,31,2.1c9.8,4,19,9.1,25.5,17.9c4.2,5.7,5.9,12.1,7,19c2.2,13.2-1.6,24.8-9.6,35
			c-6.6,8.3-15,14.2-25.9,15.6c-1.5,0.2-3,0.6-4.5,1"/>
		<path class="st2" d="M1718,419.5c-3.2-1-6.3-2-9.5-3c-8.3-2.7-11.4-13.8-8.5-22c3.6-10,15.2-18.5,25.9-17.8c4.1,0.3,9.3,2,11.7,5
			c4.9,6.1,8,13.3,5.4,21.8c-2.4,7.7-7.4,12.2-15.1,14c-3.2,0.7-6.3,1.4-9.5,2"/>
		<path class="st2" d="M1567.1,414.5c-8.2-2-16.2-4.3-23.6-8.9c-9.6-6-14.3-14.9-15.8-25.6c-1.4-10.1-2.2-20.3-3.1-30.5
			c-0.3-3.1,0.2-6.4-0.1-9.5c-0.5-5.6,5-9.2,10.1-9.5c12.9-0.8,24.4,3.2,35,10.4c9.2,6.2,18.8,11.8,27.9,18.1
			c5.4,3.8,10.9,7.8,15.4,12.5c10.7,11.4,4.7,22.9-3,29.8c-7.6,6.7-16.9,10.5-26.9,12c-5.1,0.8-10.3,0.7-15.5,1.1"/>
		<path class="st2" d="M351.4,401.5c-1.7-0.3-3.3-0.8-5-1c-10.8-1.4-15.9-10.1-12.5-20c3-8.9,9.8-14.2,17.5-18.5
			c12.3-6.7,25.6-10.7,39.5-12.5c6.9-0.9,16.5,3.7,19,9c2.9,5.9,0,11.1-2.6,16c-8.1,15.2-20.9,24.3-37.9,26.9
			c-5.7,0.9-11.6,0.1-17.5,0.1"/>
		<path class="st2" d="M1579,394.5c-4.2-1.7-8.5-3-12.4-5.1c-2-1.1-3.6-3.6-4.5-5.9c-2.5-5.9,3.1-12.1,9.9-10.9
			c4.1,0.7,8,2.2,12,3.5c1.4,0.5,3,1,4,2c5.8,5.8,5,10.8-2.5,14.4c-1.9,0.9-4,1.4-6,2"/>
		<path class="st2" d="M644.3,388.5c-7.8-3.6-14.6-17.1-12.5-25c0.9-3.4,4.8-5.7,8.5-5c7.8,1.4,15.3,10.4,15.5,18.5
			c0.2,7.7-3.4,11.4-11,11.5"/>
		<path class="st2" d="M530.3,644.5c-16.1-4.3-26.3-14.9-30.8-30.5c-3-10.5-3-21.3,4.8-30.5c6.4-7.6,16.1-7.9,23.3-1.3
			c4.3,3.9,8,9.4,9.9,14.9c3.5,10,6.1,20.5,8.1,30.9c1.7,8.8-3.8,18.2-14.8,16.5"/>
		<path class="st2" d="M1184.2,382.5c-0.7-1-1.3-2-2-3c1.2-0.2,2.3-0.3,3.5-0.5c-0.3,1.2-0.7,2.3-1,3.5"/>
		<path class="st2" d="M175.4,646.5c-4.3-0.7-8.6-1.5-13-2c-17.2-1.8-24.4-15.8-24.8-29.5c-0.3-11.1,3.3-20.2,9.8-28.5
			c4.8-6.1,10.4-11.6,15.4-17.6c7.9-9.4,18.6-12.9,30-14.3c10.2-1.3,20.6-1.8,31-2c8.7-0.2,17.4,1.5,25.4,5c5,2.2,10.2,5.4,11.2,11
			c0.9,4.6,0.4,10.1-1.4,14.4c-8.8,20.8-22.1,38.5-38.9,53.4c-6.8,6-15.6,8.7-24.9,9.2c-6.5,0.3-13,0.7-19.5,1"/>
		<path class="st2" d="M1347.1,331.5c-20.2-5.5-34.5-18-44-36.5c-4.2-8.1-0.7-12.6,6-15.1c7.2-2.7,13.7-6.6,19.1-12.4
			c6.8-7.2,9.6-20.2,1.9-30.1c-2.8-3.6-5.3-7.4-8-11c-2.6-3.4-2.9-6.9,0.1-9.9c2.9-2.9,6.3-4.9,10.9-3.7c6.6,1.7,12.1,5.2,16.9,9.7
			c10.6,9.9,20.9,20.1,31,30.5c4.4,4.5,8.2,9.5,12,14.5c5.7,7.5,7.1,15.4,3.2,24.5c-5.7,13.1-12.4,25.2-24.6,33.5
			c-7.4,5-15.4,6.4-24,5.9"/>
		<path class="st2" d="M1146.2,328.5c-13.1-3-24.2-9.5-34-18.5c-7.6-6.9-10.8-14-4-25c1.2-1.9,2.6-3.7,4-5.5
			c8.8-11.5,20.5-10.3,32.5-7.5c13.1,3.1,23.5,10.7,32.5,20.5c6.4,7,6.2,15.8-0.5,22.5c-5.2,5.3-9.8,11.5-18,12.5c-4,0.5-8,0.7-12,1
			"/>
		<path class="st2" d="M1144.2,657.5c-4.8-2.8-9.9-5.3-14.4-8.6c-10.4-7.4-21.5-13.1-34-16.6c-9.9-2.8-19.9-5.8-27.7-13.7
			c-4.7-4.8-5.8-10.6-5.1-16.1c1.2-9.8,3.8-19.4,8.1-28.6c4.9-10.5,12.7-18,22.2-23.9c20-12.4,38.8-26.6,57-41.5
			c14.2-11.7,23.4-8.8,29.4,8.5c3.6,10.4,5.5,21,3,32c-1.9,8.3-8.1,13.7-13.6,19.4c-5.6,5.8-9.9,12.2-12.9,19.6
			c-4.2,10.4-1.6,20.4,1.4,30.5c1.8,6.1,2.6,12.6,3,19c0.4,6.4-2,12-6.8,16.5c-2.7,2.5-5.4,3.9-9.1,3.4"/>
		<path class="st2" d="M370.4,658.5c-3.3-1.2-6.8-2-10-3.6c-10.2-5-9.9-12.4-3.4-18.8c4.3-4.2,9.6-7.5,14.9-10.5
			c9-5.2,16.5-11.7,20.5-21.6c0.5-1.3,1.7-2.3,2.4-3.5c1.7-2.9,4.2-4.6,7.5-3.4c3.1,1.2,4.7,6.5,3,9.9c-1.8,3.6-4.2,6.9-5.9,10.5
			c-3.8,8.1-8.1,16.1-10.8,24.5c-3,9.2-9.3,13.7-17.7,16.4"/>
		<path class="st2" d="M710.3,321.5c-4.3-2.2-5.6-6.6-4.5-13c4.3-24.9,13.1-48.4,22.9-71.3c7-16.5,18.2-31,35.1-39.7
			c7.1-3.7,14.9-4.9,22.5-4.8c13.9,0.3,27.1-2.1,40-6.7c7.5-2.7,15.3-5.1,22.4-8.6c9.6-4.6,16.6-12.5,23.1-20.8
			c7.8-9.9,14.9-20.6,25.5-28c11.6-8.1,24.2-12.7,38.5-9c15.9,4.1,20.1,11,21.7,26.5c0.9,8.6-3,17.1-11.2,21.9
			c-18.9,11.1-37.4,23.2-57.1,32.7c-14.9,7.1-30.4,13.2-45.3,20.3c-16.5,7.8-28.4,20.2-37.4,35.6c-6.1,10.5-11.6,21.4-17.6,32
			c-6.3,11.1-16.6,17.1-28.5,20.5c-15.4,4.4-31,8.4-46.5,12.5c-0.9,0.2-2,0-3,0"/>
		<path class="st2" d="M245.4,311.5c-4-0.7-8-1.5-12-2c-4.6-0.5-9.3-1-14-1c-17.1-0.1-33.8-2.6-50-8.1c-7.9-2.7-16-5.4-23.4-9.1
			c-15.4-7.6-24.7-20.3-29.1-36.9c-2.7-9.8,0-18.6,5.2-26.4c6.6-9.8,14.1-19.1,21.9-28c16-18.4,31-37.5,42-59.5
			c5.9-11.9,15.4-20.7,27-26.9c12.8-7,26.2-12.4,40.4-16.2c24.3-6.4,48.5,6.3,59,26.1c7.1,13.3,13.3,27.1,15.2,42
			c1.8,13.7,2.1,27.6,2.1,41.5c0,13.1-0.3,26.2-3.9,39c-0.9,3.3-2.1,6.8-4,9.4c-8.8,12-17.6,24-27,35.5
			c-12.5,15.5-29,22.2-48.9,20.6"/>
		<path class="st2" d="M140.5,669.5c-7.5-1.4-12.3-6.4-15.9-12.5c-8.8-14.6-17.8-29-25.9-44c-6.5-12.1-5-23.3,4.9-33.4
			c3.4-3.5,7.5-6.5,10.9-10.1c11.6-11.8,23.3-23.4,34.4-35.6c7.2-7.9,16.1-7.8,24.5-5.6c13.9,3.6,27.7,7.2,42.1,6.1
			c17.2-1.3,34.7-1,51.4-6c7.3-2.2,14.4-5.6,21-9.5c13.2-7.8,27.1-12.5,42.6-12.5c11.2,0,21.5-3.4,30.5-10.4
			c7.7-6,15.5-12.1,25.5-13.9c4.2-0.8,8.7-0.8,13-0.5c4,0.3,6.3,3.6,6.5,7.9c0.5,10.1-1.8,19.8-5.6,29c-3.7,8.9-10.9,14.7-19.9,18
			c-3.9,1.5-7.7,3-11.5,4.5c-7.8,3-13,9.1-16.3,16.1c-8.1,16.8-21,28.4-37.2,36.9c-12.1,6.3-24.5,11.9-36.4,18.6
			c-15.4,8.7-22.9,23-26.1,39.9c-1.2,6.7-5.7,14.1-17,14.9c-13.1,1-26.3,1.8-39.5,1.9c-8,0.1-16-1.5-24-1.8
			c-5.1-0.2-10.3,0.6-15.5,0.9c-5.3,0.3-10.7,0.7-16,1"/>
		<path class="st2" d="M232.4,299.5c-2.7-0.3-5.3-1-8-1c-23,0.5-44.8-4.2-65-15.5c-15.6-8.8-23.6-22.1-23.4-40
			c0.1-8.3,3.6-15.9,7.9-23c8.5-14.1,19.3-26.6,30.1-38.9c7.8-8.9,12.9-19,17.3-29.6c7-16.8,19.2-28.4,35.6-35.3
			c7.8-3.3,16.1-5.7,24.5-7.5c22.3-5,38.2,5.2,47,22.4c7.4,14.3,11.7,29.5,14.8,45.1c3.9,19.5,5.3,39.4-2.5,58.4
			c-4.4,10.6-10.3,20.5-15.9,30.5c-4.6,8.4-9.6,16.5-16.9,23.1c-6.5,5.9-13.9,9.7-22.6,10.4c-7.5,0.6-15,0.7-22.5,1.1"/>
		<path class="st2" d="M918.2,675.5c-6.3-2.9-8-6.7-5.5-12c1.4-2.9,2.9-5.8,7-4.5c2.9,1,6,6.6,4.9,9.4c-1.1,2.9-2.3,6-5.9,7"/>
		<path class="st2" d="M1760,292.5c-3.7-0.5-7.3-1-11-1.5c-11.7-1.4-21.3-7-30-14.5c-12.1-10.5-20.9-23-24-39
			c-1.4-7.4-2.2-15-3.6-22.5c-1.7-9.7-6.1-17.6-15.5-22c-7.6-3.6-14.8-8.5-17.7-16.1c-4.8-12.5-6.2-25.9-1.2-38.8
			c3.7-9.6,11.8-14.8,21.9-16.5c3.8-0.6,7.7-1.2,11.5-1c16.8,1.2,31.6-3.8,45.6-13c11.3-7.4,23.9-11.5,37.4-13.3
			c14.2-1.8,28.3-2.2,42.5-1.7c13.1,0.4,25.3,4.6,37,10.4c4.2,2.1,8.4,4.5,11.9,7.5c6,5.1,6.3,11.4,1.6,17.9
			c-4.7,6.4-9.6,12.7-14.5,19c-8.9,11.4-14.8,24.2-16.3,38.5c-0.8,7.5,0.2,15.4,1.4,23c2.5,15.9,4.2,31.9,3.3,48
			c-0.6,11.5-6.8,18.4-17.9,21.6c-9.3,2.7-18.2,6.7-27.6,9.3c-6.8,1.9-13.9,2.6-21,3.6c-4.5,0.6-9,0.7-13.5,1"/>
		<path class="st2" d="M746.3,291.5c-6.3-1.4-11.4-4.4-11.3-11.5c0-4.2,1.4-8.5,2.9-12.5c3.9-9.9,8.2-19.7,12.4-29.5
			c3.3-7.7,8.6-13.5,16.5-16.4c5.9-2.2,12.1-2,16.9,2.5c4.9,4.6,7,10.1,5.2,17.4c-3,12.3-7.2,23.9-14.2,34.5
			c-6.6,10.1-16.5,14.2-28,15.5"/>
		<path class="st2" d="M211.4,288.5c-3.7-0.7-7.3-1.4-11-2c-13.7-2.4-26.4-7.2-36.9-16.6c-9.4-8.3-13.4-18.6-11.7-31.5
			c2.1-16.1,11.8-27.5,21.7-38.9c4.4-5.2,9.4-9.9,13.9-15.1c6.1-6.9,8.6-15.7,12.1-23.9c2.9-6.8,5.8-13.9,10.1-19.9
			c8.9-12.5,22.4-17.9,36.8-21.1c11.3-2.5,21.8-0.9,31,6.5c8.5,6.8,12.8,16.5,15.3,26.5c3.5,14.1,6.3,28.5,8,43
			c2,16.3-1.3,31.9-10.3,46c-6,9.5-11.3,19.6-17.6,28.9c-8,11.8-20.2,16.2-33.9,17c-9,0.5-18,0.7-27,1"/>
		<path class="st2" d="M648.3,287.5c-5.2-1-10.5-1.6-15.5-3.1c-11.5-3.5-19.3-11.4-23.4-22.5c-3.7-10-7.1-20.1-9.4-30.5
			c-1.3-6-1.1-12.8,0-18.9c1.3-7.1,6.5-11.8,13.3-14.6c9-3.6,18.4-5.8,28-6.4c8.8-0.6,17.7-1.2,26.5-0.9c4.5,0.1,9.1,1.9,13.5,3.4
			c5.6,1.9,8.1,6.3,7.4,11.9c-1.5,12.5-3.2,25.1-5.5,37.5c-1.6,8.3-4.1,16.5-7,24.5c-3,8.6-8.6,15.4-17.9,18
			c-3.1,0.9-6.3,1.1-9.5,1.6"/>
		<path class="st2" d="M215.4,277.5c-5.5-1-11-1.8-16.5-3c-11.6-2.5-21.4-8.7-28.3-18.1c-6.3-8.5-6.3-18.9-2-28.3
			c3-6.5,7.7-12.4,12.4-18c4.8-5.8,10.4-10.9,15.9-16.1c6.9-6.5,10.7-14.5,13-23.5c2.1-8.2,3.8-16.5,8.9-23.5
			c6.6-9,15.6-13.6,26.5-15.6c7.6-1.4,14.3,0,20.5,3.8c8.2,5.1,12.4,13.3,13.9,22.4c1.7,10.4,2.2,21,3.1,31.5
			c0.4,4.8,0.7,9.7,1,14.5c0.9,11.6-2.7,22.4-7.7,32.4c-5.3,10.6-11.8,20.6-20.8,28.6c-8.3,7.5-18.2,10.7-29,11.9
			c-3.5,0.4-7,0.7-10.5,1"/>
		<path class="st2" d="M552.3,677.5c-15.8-4-30-11.4-42.9-21.1c-12.9-9.6-20-23.2-23.9-38.5c-4-15.3-3.7-30.8,1.4-46
			c4.6-13.5,21.1-25,37-20.5c8.2,2.3,13.3,8.5,18.5,14.5c7.4,8.6,10.7,19.1,14.5,29.5c3.5,9.4,7.2,18.7,11,28c4.9,12,7,24.3,2.9,37
			c-2.8,8.9-7.4,16.2-18,17"/>
		<path class="st2" d="M938.2,276.5c-3.5-1-7.2-1.6-10.5-3.1c-6.4-3-12.6-6.6-12.9-14.9c-0.1-1.8,0.8-3.9,2-5.4
			c4-5.4,9.9-8.1,15.9-10.5c11.2-4.4,21.5-10.3,30.6-18.4c5.6-5,12-9.2,18.5-13c9.9-5.7,13.8-14.6,16-25.1c2.3-10.7-0.7-20.8-2.7-31
			c-2.6-13.4-4.7-26.9-3.3-40.5c1.5-14.3,4.8-28.3,14.8-39.5c5.4-6.1,12.5-8,20.5-8.6c15.9-1.3,30,4.5,44,10.7
			c10.8,4.8,21.5,9.6,31.9,15.1c6.2,3.2,11.6,7.5,11.7,15.9c0.2,9.2,1.1,18.3,1.9,27.5c0.8,8.2,2.8,16.3,2.8,24.5
			c-0.1,17.9-14,35.3-30.8,39.6c-12.6,3.3-25.2,4.6-38,4.9c-12,0.3-24.1,0.8-36,2.1c-7.9,0.9-15,4.9-20.5,10.9
			c-9.1,9.9-18.3,19.8-26.9,30.1c-3.9,4.7-7.1,10.1-10,15.5c-4.1,7.5-8.9,13.7-18.6,13.5"/>
		<path class="st2" d="M1757,275.5c-6.8-1.7-13.6-2.9-20.1-6.3c-18.9-10.2-30.3-31.1-25.4-54.6c2.1-10,4.3-19.9,5.9-30
			c1-6.2,1-12.6,1.1-19c0.1-6.3,1.3-12.1,4.5-17.5c7.8-13,16.3-25.2,29.5-33.5c8.6-5.4,18-7.7,28-9.1c10.8-1.6,21.2-0.5,31.5,2.3
			c10.7,2.9,18.6,9.5,22,20.4c1.9,6.1-0.5,11.9-2.5,17.5c-3.5,9.7-7.8,19.2-10.8,29.1c-2.3,7.4-2.8,15-1.3,23
			c1.8,10.4,2.4,20.9,3.2,31.5c0.9,11.6-4.3,20.4-13.5,27c-11.3,8.1-23.4,14.7-37,17.9c-4.7,1.1-9.6,1.1-14.5,1.6"/>
		<path class="st2" d="M644.3,270.5c-8.9-1.3-15.9-5.8-20.5-13.5c-4.6-7.8-6.7-16.5-5.9-25.5c0.7-8.7,5.8-14.4,13.9-17.5
			c7.7-3,15.6-3.6,23.5-1.4c5.9,1.7,10,6.3,11.3,11.9c2.9,12.1,0.4,23.8-4.9,34.9c-3.3,7-9.3,10.5-17,11"/>
		<path class="st3" d="M211.4,262.5c-5.5-2.2-11.4-3.6-16.4-6.6c-13.5-8.1-14-23.9-4-34.8c6.1-6.6,12.7-12.9,20-17.9
			c11.6-8,15.6-19.1,16.9-32.2c0.8-7.5,2.5-14.9,9.4-19.5c11.7-7.6,23.8-1.6,26.5,12c2,10-1.1,19.7-1.5,29.5
			c-0.3,7.3-0.2,14.7-0.5,22c-0.6,12.2-4.7,22.9-12.9,32.1c-6.9,7.6-14.7,13.4-25.1,14.9c-3.9,0.6-8,0.4-12,0.6"/>
		<path class="st2" d="M1753,256.5c-7.6-1.7-14.3-4.8-19-11.5c-7.2-10.1-7.3-20.7-2.4-31.5c2.4-5.1,5.7-9.8,8.9-14.5
			c6.1-8.8,9.7-17.8,7.2-29.1c-1.8-8.3-1.8-16.8,0.6-25.5c3.7-13.9,18.8-25.2,32.2-25c7.1,0.1,14.1-0.3,20.5,4
			c9.7,6.3,9.8,12.6,7.8,22.5c-2.3,10.9-10.2,19.1-16.3,28c-0.5,0.7-1,1.3-1.5,2c-8.3,11.8-6.2,13.6-0.9,23.4
			c3.3,6.1,7.4,11.7,8.9,18.6c1.5,7.1,0.6,13.9-4.1,19.4c-8,9.6-18.4,15.8-30.4,18.9c-3.4,0.9-7.3,0.1-11,0.1"/>
		<path class="st2" d="M1143.2,683.5c-8.4-2.4-13.7-9-18.9-15.1c-12.2-14.5-28.2-20.7-46.1-23.9c-7.2-1.3-14.4-3-21.5-5
			c-11.3-3.2-21.4-14-16.5-30.4c1.6-5.2,3.7-10.3,5.4-15.5c3.2-9.7,6.6-19.2,9.4-29c3.2-11,10-18.8,19.6-24.4
			c5.5-3.2,11.4-5.9,17-9.1c19.4-10.9,33.8-27.1,46.5-45c6-8.5,12.5-16.3,22.5-20.6c18-7.7,40.4,2.1,41.1,26.1
			c0.4,13.7,1.4,27.3,1.9,41c0.3,9,0.5,18-0.1,27c-0.4,5.7-3.9,10.4-7.8,14.5c-5.1,5.4-10.2,10.8-15,16.5c-3.7,4.5-5.1,10.1-5,15.9
			c0.2,10.2,1.4,20.4,0.8,30.5c-0.9,14.3-5.3,27.7-14.8,39c-4.8,5.8-10.6,8.5-18.1,7.5"/>
		<path class="st2" d="M1050.2,184.5c-26.1-5.4-35.7-25.7-42.3-48c-3.1-10.5-2-21.4,2.5-31.4c8.1-17.9,23.9-24.5,42.3-18.9
			c20.6,6.3,34.6,19.7,40.6,40.8c2.8,10,4.4,20.2,3.3,30.5c-0.9,9.3-6.6,15.6-14.3,20.6c-9.8,6.3-20.5,6.9-31.5,6.4"/>
		<path class="st2" d="M1410.1,184.5c-26.8-6.7-49.7-21.6-72.8-35.7c-7.5-4.6-13.5-11.5-16.2-20.7c-3.7-12.5-2.6-24.3,3.7-35.5
			c8.8-15.6,22.3-24.5,39.9-27c13.5-1.9,27-3.7,40.5-4.9c7.9-0.7,16.1-1.1,23.9,0.1c12.9,2,23.4,12.5,23.4,27.3
			c0.1,12.3-0.4,24.7-1,37c-0.4,9.5-0.8,19.1-2.1,28.5c-2,15.1-8.9,27.1-25.4,30.4c-4.4,0.9-9,0.4-13.5,0.6"/>
		<path class="st2" d="M562.3,178.5c-6-1.8-12.3-3-17.9-5.7c-8.8-4.2-15.5-11.2-19.9-19.9c-1.7-3.2-2.3-7.2-2.5-10.9
			c-0.4-6.7,3.9-11.2,10.3-13.6c9.5-3.5,18.8-1.7,28,0.7c6.5,1.7,12.4,4.9,18.2,8.6c10,6.4,8.5,26.3,2.9,32.8
			c-5,5.9-11.3,7.9-18.6,7.9"/>
		<path class="st2" d="M1423.1,684.5c-14.9-3.2-23.8-14-30.8-26.1c-5.8-9.9-3.6-19.3,5.9-25.3c5.9-3.8,12.3-6.7,18.4-10.1
			c12.9-7.3,20.6-19.4,29.1-30.9c4.8-6.5,10.3-12.7,16.5-18c10.3-8.8,22.6-8.8,35.4-6.2c20.5,4.2,36.3,15.3,48.5,32
			c2.8,3.8,6.1,7.3,8.9,11c8.8,11.5,8,24.7-4.6,33.9c-9,6.5-18.8,11.8-30.4,11.6c-4,0-8,0.1-12,0c-19.5-0.6-36.5,6.5-53,15.9
			c-7.7,4.4-15.9,7.9-24,11.5c-2.2,0.9-4.9,0.5-7.4,0.6"/>
		<path class="st2" d="M70.5,172.5c-9.5-3.4-14-9.6-14.5-20c-0.5-11.4,0.5-22.7,4.5-33.5c3.6-9.8,10.7-16,21-16.2
			c5.8-0.1,11.7,2.9,17.5,4.7c8.9,2.8,16.1,8.2,22.5,14.9c6.7,7,5.6,17.7,1.9,24c-7,11.9-17.6,19-30.9,22c-7.1,1.6-14.3,2.7-21.5,4"
			/>
		<path class="st2" d="M1402.1,164.5c-17.3-3.4-32.5-11.6-46.4-22.1c-5.4-4.1-10.5-9-14.4-14.5c-7.3-10-6.1-27,2.8-36.5
			c8.2-8.7,18-12,29.6-13.1c12.9-1.2,25.3,0.1,37.5,3.8c9.7,3,15.5,10.2,16.4,20.4c1.1,12.8,1.3,25.7,2.2,38.5
			c0.8,11.7-8.5,25.1-23.6,23.5c-1.2-0.1-2.3,0-3.5,0"/>
		<path class="st2" d="M1051.2,160.5c-15-5.8-23.6-16.8-26.5-32.5c-2.3-12.1,4.2-23.6,15-25.4c9.5-1.5,17.8,1.8,23.9,9.4
			c8,9.9,11.7,21.2,9.5,34c-1.8,9.8-9.3,16-18.9,14.5c-0.8-0.1-1.7,0-2.5,0"/>
		<path class="st2" d="M1256.1,694.5c-1.8-0.3-3.7-0.6-5.5-1c-8.8-1.9-13.5-8-16.5-16c-3.2-8.7-4.9-17.5-2.4-26.5
			c2.1-7.3,6.9-13,13.9-15.9c13.5-5.5,27.4-6.8,41.4-1.6c11.8,4.4,17.7,13.8,19.3,25.5c1.5,10.9-1.9,21-10.9,27.8
			c-5.2,4-11.7,6.1-18.4,6.6c-6.8,0.5-13.7,0.7-20.5,1"/>
		<path class="st2" d="M1596,151.5c-5.3-1.6-9.5-4.7-9.3-10.5c0.2-6.5,2.7-12.5,8.8-16c9-5.1,15-1.5,15,9c0,10.7-5,17-14,17.5"/>
		<path class="st2" d="M1145.2,703.5c-13.2-1.8-21.6-10.5-29-20.5c-6.9-9.2-14.6-17.8-26.5-20.5c-5.9-1.3-11.9-2.6-18-2.9
			c-9.5-0.5-19-0.4-28.5-0.1c-11,0.3-18.3-5.4-22.3-14.6c-7.6-17.2-5.8-34.4,3.5-50.3c6.8-11.6,11.7-23.5,10.2-37.1
			c-1.4-14,4-23.1,17.1-28c9.1-3.4,18-7.3,27-10.9c14.6-5.8,26.6-15,35.4-28c4-5.9,7.7-12,11.5-18c8.4-13.1,18.9-23.6,35-26.5
			c10.6-1.9,21.1-1.5,31.5,1c5.2,1.2,10.4,2.4,15.5,4c8.2,2.6,13,8.8,12.9,17.4c-0.2,16.3-1.2,32.7-1.3,49c0,9.5,0.9,19,2,28.5
			c1.1,9,3.2,18.2-0.3,26.9c-1.7,4.3-5,8.2-8.4,11.5c-6.4,6.3-13.5,12-17.9,20.1c-4.3,7.9-4.9,16.8-6,25.5
			c-2.6,19.3-6.3,38.3-16.1,55.4c-5.8,10.1-14.3,17.4-26.9,18.1"/>
		<path class="st3" d="M84.5,148.5c-8.7-1.9-12.7-12.2-8-20c2.3-3.9,8.2-7.2,12-6.5c8.1,1.5,13.4,6.1,14.5,12.5c0.7,4-3,9.9-8,11.9
			c-3.1,1.2-6.6,1.4-10,2.1"/>
		<path class="st2" d="M376.4,706.5c-7.7-1.8-13.2-7.2-19.5-11.5c-9.3-6.4-18.5-12.9-28-18.9c-7.2-4.6-14.3-9.5-18.3-17.1
			c-6.1-11.7-5.3-19.8,3.6-28.7c6.3-6.4,14.2-11.2,21.9-16.1c9.2-6,18.6-11.8,24.9-21.1c3.2-4.7,6.2-9.5,9-14.5
			c7-12.4,18.4-18.5,31.5-21.9c4.2-1.1,8.6-1.7,13-2c5.6-0.4,10.1,2.2,13,7c8.1,13.5,12.8,28.1,11.5,44c-0.9,10.2-4.2,19.9-7.9,29.5
			c-8.8,23.1-21.5,43.8-37.6,62.5c-4.3,5-9.2,9.2-16.5,9"/>
		<path class="st2" d="M912.2,707.5c-1.8-0.3-3.7-0.5-5.5-1c-6.2-2.1-12.3-4.7-15.5-11c-5.8-11.7-8.3-24-5.5-37
			c3-14.3,13.1-21.8,26-25.8c5.3-1.7,11.5-2.7,16.9-1.9c10,1.4,14.8,9.2,16.9,18.3c2.3,10.2,2.5,20.8,0,30.9
			c-3,12.1-13,25.3-27.9,26.6c-1.7,0.1-3.3,0.6-5,1"/>
		<path class="st3" d="M1383.1,133.5c-8.3-3.5-15.2-8.5-17.9-17.5c-3.3-10.7,6.7-16.5,14.4-15.3c13.3,2.1,17.4,9.2,19,20.8
			c1,7.3-3.3,12-10.4,12c-1.5,0-3,0-4.5,0"/>
		<path class="st2" d="M1693,708.5c-5.2-1.5-10.6-2.4-15.4-4.6c-14.6-6.7-23.9-18-26.4-33.9c-1.8-10.9-1.8-22.2,3.1-32.4
			c4.5-9.3,13.2-13.9,23.3-15c10.3-1.1,20.7-2,31-1.9c8.1,0.1,16.3,1.4,23.1,7.2c6,5.2,7.2,12.2,7.8,19.1c1.2,14-0.9,27.5-8.2,40
			c-6.8,11.6-16.1,18.9-29.6,20.4c-2.7,0.3-5.3,0.7-8,1"/>
		<path class="st2" d="M847.2,763.5c-10.8-3-13.4-13.6-8.9-24.5c3.3-7.9,9-14.3,15.4-20c5.5-4.9,9.1-11,10.9-18
			c1.1-4.2,1.8-8.6,2-13c0.3-7.5,0.1-15,0.1-22.5c0-15.5,5.8-28.1,19-37c11.4-7.8,24-12.2,37.5-13.8c6.1-0.7,12.4-0.6,18.5,0
			c9.9,1,14,8.8,15.8,16.9c2.1,9.6,2.3,19.6,3.2,29.4c0.4,4,0.9,8,1,12c0.3,19.3-8,33.8-24.4,44.1c-9.1,5.7-19.2,7.8-29.5,9.5
			c-11.7,1.8-23.3,3.9-31.6,13.9c-5.1,6.1-10.8,11.8-16.5,17.5c-3.2,3.2-7.1,5.6-12,5.5"/>
		<g>
			<path class="st1" d="M1032.2,0.6c2.5,2.8,4.8,5.9,7.5,8.4c5.4,5,8.6,11.2,11.1,18c2,5.5,4.3,11.1,7.5,15.9
				c8.5,12.6,20.7,19.9,35.9,20.3c5.4,0.1,11.5-2.5,16.4-5.3c20-11.7,40.2-11.6,60.5-1.7c4.1,2,7.6,5.7,10.4,9.4
				c3.9,5.2,2.5,13.3-2.3,18.9c-4.8,5.6-11.1,9.1-17.5,12.5c-7.8,4.2-14.8,9.1-19.6,17c-6.3,10.4-4.8,21.2-1.9,32
				c1.2,4.6,2.8,9.1,4.5,13.5c3.6,9.5,2.3,17.9-3.3,26.6c-6.5,10-11.4,20.9-17.2,31.4c-2.2,4-4.6,8-7.5,11.5
				c-4.5,5.4-10.7,5.5-16.9,4c-12.2-2.9-24.2-6.6-37-5.4c-23.7,2.2-40.7,12.4-48.5,37.5c-1.8,6,1.4,15.6,7,18.9
				c6,3.4,12.6,5.8,18.9,8.6c3.3,1.5,6.9,2.6,9.9,4.6c4.4,2.9,5.7,7.1,4,11.9c-1.2,3.4-2.3,6.9-4,10c-6,10.7-3.7,20.5,2.6,30
				c2.5,3.8,5.2,7.4,8,11c3.2,4.3,4.4,9.3,2.3,13.9c-2.4,5.3-7.7,6.9-13.3,6.5c-14.5-0.9-29-2-43.5-3c-10.7-0.8-16.7-7.5-21-16.5
				c-5.7-11.9-11.9-23.6-22.6-31.9c-9.2-7.1-18.8-13.6-28.5-20c-6.3-4.2-12.8-8.1-19.5-11.5c-13.2-6.7-28.4-5.9-38.5,5.9
				c-3.5,4.1-7.3,8-11,12c-7.6,8.4-16.3,15.5-25.5,22c-7.8,5.6-11.5,13.7-13,23c-2.6,16.3,4.1,29.9,13.7,41.9
				c13.3,16.6,27.8,32.1,41.8,48.1c12.9,14.9,29.2,23.4,48.5,27.1c16.6,3.2,33,7.2,49.5,10.9c10.7,2.4,20,7.7,28.5,14.5
				c8.7,6.9,18.2,11.7,29.5,10.4c25.4-3,49-10.3,64.4-33c4.1-6.1,7.5-12.8,10.5-19.5c7.6-17.1,21.5-25.2,39.1-28.5
				c14.2-2.6,28.6-3.6,43-2.9c14.5,0.7,24.7-6,31.9-17.6c7.5-12.2,11.3-25.6,12.8-39.9c1.7-16.9-1.1-32.4-9.6-47
				c-1.5-2.6-2.5-5.6-3.5-8.5c-3.3-9.1,0.5-13.8,8-15.8c5.1-1.4,10.7-1.7,15.9,0.4c5,2,10.1,3.9,15,6c21.9,9.5,42.3,21.5,62.2,34.7
				c9.9,6.6,21.6,10.5,32.3,15.8c9.8,4.9,17.6,1,24.5-5.6c9-8.6,17.7-17.7,26.6-26.4c5.4-5.3,11.5-9.3,19.5-7.9
				c3.3,0.6,6.9,1.5,9.4,3.5c14.2,10.9,28.3,22,42,33.5c7.4,6.2,10.6,20.4,5,30.4c-6.5,11.7-17.6,17.1-30.9,13.9
				c-11.2-2.7-22.1-7.1-33-10.8c-11.7-4-23.4-7.9-35-12c-13.7-4.9-16.8,2.8-17.2,12.5c-0.3,7.8,1.8,15.7,3.3,23.5
				c2.6,13.1,4.4,26.2,3.3,39.5c-0.6,6.6-1.6,13.7-4.6,19.4c-6.2,11.6-11.4,14.4-25.2,8.5c-9.5-4.1-18.4-9.8-27.6-14.8
				c-8.2-4.5-16.3-9.1-24.5-13.5c-11.9-6.3-23.1-3-34,3c-16.2,9-23.3,24-25.9,41.5c-1.3,8.8-2.7,17.6-2.9,26.5
				c-0.3,13,2.6,25.6,6.2,38c1.5,5.4,1.8,11.3,1.5,16.9c-0.4,8.2-7,12.5-12.8,17c-4,3-8.1,5.9-12,9c-11.1,9-15,21.7-18.1,35
				c-3.9,16.6-7.4,33.4-13.2,49.4c-5.2,14.3-15.3,25.8-31.2,29.5c-9.8,2.3-19.8,0.8-27.8-5.5c-8.8-7-17-15-25-22.9
				c-5.8-5.7-12.2-10-20.1-11.3c-5.7-1-11.8-1.3-17.4-0.5c-9.3,1.4-18.5,3.1-28,2.9c-9.7-0.2-17.3-4.3-23.5-11.5
				c-7.8-9.1-11-19.8-11.5-31.5c-0.2-4.7-0.9-9.3-0.9-14c-0.2-15.7,1.9-31.1,5.3-46.5c4.2-19-9.6-29.3-26.3-27.3
				c-16.3,2-32.3,6-48.5,8.7c-14.4,2.4-27.3,8.2-39.5,16c-16.4,10.4-33.2,20.2-50,30c-5.7,3.3-11.8,6.1-18,8.5
				c-9.6,3.8-14.6,1.3-18.6-6.4c-12.5-24.2-21.5-49.5-27.3-76.1c-0.3-1.4,0-3,0-4.5c-0.6-10.3-0.2-20.9-2.2-31
				c-3.3-17-8.4-21.6-25.3-25.4c-6.3-1.4-13-1.6-19.5-2.1c-8.8-0.6-13.7-6.6-16.8-13.6c-4.1-9.3-5-19.2-3.3-29.5
				c1.3-7.9,1.4-16,2.2-24c1.6-16.2,2.2-32.7,10.4-47.5c5.9-10.7,14.1-18.6,26-21.9c8.3-2.3,16.5-5.1,25-6.4
				c18.1-2.7,30-11.8,35.7-29.6c2.5-8,6.5-15.8,11-23c5.6-9.2,14.7-14.8,23.8-20.1c15.3-8.8,30.5-17.9,46-26.4
				c9.3-5.1,19.4-8.8,28.9-13.7c8.4-4.3,16.3-9.3,24.5-13.9c6.6-3.6,13.6-6.6,19.9-10.6c10.5-6.8,15.3-16.9,15.6-29.4
				c0.3-13.8-1.2-27.4-3.6-41c-2.7-15.4-12.1-24.5-26.8-29.7c-13.9-4.9-27.4-3.7-41-0.2c-4.5,1.1-8.6,3.5-13,4.9
				c-10,3.2-14.8,10.9-18.5,20c-4.5,10.9-8.9,22-14.6,32.4c-7.6,13.9-20.2,21.3-35.8,23c-11.3,1.3-22.7,1.6-34,3.2
				c-9.4,1.3-18.8,3.4-28,6c-7.8,2.3-13.6,7.9-18.5,14.3c-10.1,13-21.3,25.3-27.8,40.6c-4.6,10.7-7.9,21.9-11.6,32.9
				c-3.7,10.8-7.3,21.5-12.9,31.5c-6,10.8-14.4,16.5-27.1,16.6c-11,0.1-21.4-2.6-32-4.7c-5.3-1.1-10.6-2.5-16-3.5
				c-12.3-2.3-20.7-9.4-26-20.5c-4.9-10.2-9.8-20.5-15-30.5c-4.3-8.2-8.9-16.3-14-24c-6.8-10.2-17.6-15.4-28.5-19.9
				c-14-5.8-28.4-10.5-42.4-16.2c-15.4-6.2-26.5-16.9-33.1-32.4c-2.5-6-5.3-11.9-8.5-17.5c-4.7-8.2-16.6-11.2-25.9-9.6
				c-10.3,1.7-19.5,6.1-29,10.1c-6.4,2.7-13,4.5-20,4.5c-4.2,0-8.4,0.2-12.5,1.1c-3.9,0.8-7.1,3-9,6.9c-3.8,7.6-5.7,15.6-6.5,24
				c-0.7,8.5-1.9,17-1.8,25.5c0.1,6.8,1.1,13.9,3,20.4c2.2,8,7.4,14.2,14.3,19.1c6.5,4.6,12.5,9.6,14.2,18.4
				c2.4,12.2-7.2,24-17.6,22.6c-7.1-1-14.3-1.5-21.5-2c-5.3-0.4-10.2,1.3-14.5,4.5c-6.2,4.7-12.7,9.3-18.4,14.6
				c-7.6,7-15.7,13.2-25.1,17.3c-9,3.8-18.4,5.8-28.5,3.8c-8.9-1.7-17.9-2.6-27-3.1c-25.9-1.4-51.5-4.2-76.5-11.1
				c-11.4-3.2-21.9-8-30.5-16.5c-8.8-8.6-17.6-17.1-26.5-25.5c-8.5-8-8.2-18.1-2.5-27c7.7-11.9,17-22.2,28.5-30.5
				c16.1-11.6,29.5-25.9,40.9-42.1c7.5-10.7,14.2-21.9,21.1-32.9c7.8-12.7,17.9-23.1,31.1-29.8c12.8-6.5,26-12.4,39.5-17.5
				c16.8-6.3,33.9-5.2,50.9-0.1c7,2.1,14,4.4,21,6.4c6.1,1.7,10.8-0.3,13.5-6c5.5-11.8,6.8-24.3,4.9-37c-2.5-16.4-5.6-32.7-8.4-49
				c-0.1-0.6,0-1.3,0-2"/>
			<path class="st1" d="M316.4,0.6c2.5,14.4,6.5,28.7,5.5,43.5c-1.1,16.1-8.3,23.7-24.5,24.4c-14.6,0.6-29.1,0.8-43.5,4.1
				c-15.6,3.6-29.4,11.3-43.5,18.5c-9.6,4.9-19,10-27,17.5c-9.7,9.1-15.5,20.8-22,32c-9.8,17.1-20.8,33.3-36.6,45.4
				c-6.1,4.7-13.1,8.4-19.9,12c-9,4.8-17.1,10.6-24.5,17.5c-8.3,7.7-17.1,14.9-25.4,22.6c-7.5,7-8.4,16.5-3,25.4
				c5.4,9,13.3,15.7,21.5,22c18.8,14.4,37.6,28.8,56.5,43c7.7,5.8,16.8,8.2,26.4,8.1c10-0.1,20,0.2,30-0.1c7.7-0.3,15.3-1.8,23-1.8
				c7.5,0.1,15,1.3,22.5,2.4c8.4,1.2,16.6,3.6,25,4.3c11.4,0.9,22.1-2.9,31.9-8.4c7.8-4.4,14.8-10,22.6-14.3
				c5.6-3.1,11.8-5.8,18-6.8c4.9-0.9,10.4,0.5,15.4,1.8c15.4,4.2,28.9,0.9,41-9.2c2.5-2.1,4.9-4.6,6.5-7.5
				c6.4-11.7,13-23.3,18.5-35.5c8.9-20.1-0.5-31.8-18.4-40.4c-5-2.4-10.5-4-15.4-6.6c-14.3-7.4-14.5-23.9-2.4-33.8
				c4.4-3.6,10.5-5.2,15.9-7.7c6.8-3.2,13.7-6.3,20.5-9.5c9.2-4.3,16.4-0.7,19.9,7c2.4,5.4,4.2,11.1,6.6,16.4
				c3.1,7.1,6.8,13.9,9.9,21c2.9,6.6,4.8,13.5,4.7,21c-0.3,15,11.8,26.6,26.9,26.5c7.1,0,9.9-5.4,13.5-10c3.4-4.4,6.3-8.9,11.9-11.8
				c6.7-3.4,12.9-2.6,19.1-0.5c4.8,1.6,9.3,4.5,12.1,9.3c5.7,9.5,13.5,17.1,22,24c9.2,7.5,14.5,17.6,18.5,28.5
				c1.6,4.3,3.2,8.6,5.5,12.5c3.8,6.1,10.5,7.8,16.9,7.9c21.7,0.3,42.8,3.6,63.5,10.1c9,2.8,18.5,3.4,28,3.1c7.5-0.2,9.6,1.8,8.9,9
				c-1.8,19.7-3.3,39.4-6.2,59c-1.7,11.9-8,22.5-15.4,31.9c-6.3,8-13.6,15-20.4,22.6c-5.2,5.8-7.7,12.7-8.1,20.5
				c-0.5,9.2-1.3,18.3-2,27.5c0,0.3,0.1,0.7,0,1c-3,7.9-5.2,9.2-12.4,4.9c-2.2-1.4-3.9-4.3-5-6.9c-2.9-6.9-5.8-13.8-8-21
				c-3.4-11.5-9.3-21.5-17.1-30.5c-9.2-10.5-17-21.8-21.3-35.1c-2.8-8.6-5.1-17.5-5.9-26.5c-0.6-7.2,1.6-14.6,2.1-22
				c0.4-6,0.1-12,0.1-18c0-2.2,0-4.4-0.5-6.5c-2.2-7.9-5.7-14-15.4-14.7c-9-0.6-21.1,2.1-24.8,10.8c-2.1,4.9-2.9,10.5-3.6,15.9
				c-1,8.1-0.4,16.6-2.3,24.4c-3.1,12.4-9.5,23-23.3,25.9c-8.9,1.9-17.7,0.4-26.5-2.3c-7.5-2.2-15.2-4.3-23-4.9
				c-13.5-1.2-25,5.1-35.4,12.9c-8,6-15.5,12.7-23,19.4c-10,9-22.1,14.2-34,20c-13.9,6.7-26.5,16-41.5,20.4
				c-8,2.3-16.2,3.1-24.5,1.6c-10.5-2-15.5-10.3-21-18c-2.3-3.2-4.3-6.6-7-9.5c-7.8-8.1-16.1-8.1-25.5-1.6
				c-8.6,5.9-12.3,15-16.9,23.6c-3.4,6.3-6.1,13.1-10.1,18.9c-6.9,9.8-16.4,12.1-26.3,9.4c-10.1-2.7-19.8-6.6-29.5-10.4
				c-12.7-4.9-25.7-6.5-39-3.8c-7.8,1.6-16.3,8.1-18.2,20.3c-1.2,7.6-3.4,15.3-6.5,22.5c-3.7,8.6-11.6,13.4-19.8,17.6
				c-4.8,2.5-9.5,5.4-14,8.5c-8.1,5.6-11.4,13.7-11.6,23.5c-0.2,14.3,1.8,28.2,5.1,42c3,12.3,9.3,23,17.6,32.4
				C89,655.3,93.9,669.3,97,684.5c2.6,12.7,7.8,24.1,20,30.4c5.5,2.8,11.5,5,17.5,6.5c10.9,2.8,20.4,8,28.4,15.7
				c14.2,13.7,30.2,25.3,47.2,35.1c8.8,5.1,19.3,8.1,29.4,10.1c18.5,3.5,31.3,13.3,40,29.7c5.6,10.6,10.3,21.5,12.8,33.1
				c4.9,23.5-1.1,44.1-18.4,60.9c-4.5,4.4-10.7,6.8-16.9,7.5c-8.4,0.9-13.8-2.3-18-12.9c-3.2-8-6-16.2-9.6-24
				c-8-17.7-22.9-25.6-41.4-26.9c-14.6-1.1-29.4-1-44-2.2c-11.6-1-23.1-2.6-34.5-5c-11.9-2.6-23.8-2.6-35.5-0.6
				c-7.5,1.3-14,0-20.5-2.8c-3.7-1.6-7.1-3.8-10.5-6c-6.9-4.5-14.3-6.6-22.5-6.5c-6.3,0.1-12.7,0-19,0"/>
			<path class="st1" d="M1919.9,161.5c-10,1-20.1,1.4-30,3.1c-14.6,2.5-24.5,12.7-26.8,28.3c-1.2,8.6,0,16.8,0.9,25
				c1.2,10.7,3.6,21.3,5.3,32c2.6,15.4,8.6,29.7,14.4,44c6.4,15.7,12.6,31.5,17.9,47.5c3.2,9.7,4.5,20,6.7,29.9
				c1.2,5.5,2.8,11,3.9,16.5c0.8,4-1,7.3-3.4,10.5c-5,6.6-10.1,13-14.4,20c-4.6,7.5-5.6,16.3-6.1,24.9c-0.2,4.5-0.3,9,0,13.5
				c1.3,17.7-4.1,33.2-13.4,48.1c-14.1,22.4-27.4,45.3-41.1,67.9c-5.3,8.7-8.1,18.2-9.4,28c-2.8,21.4-7.9,42-19.5,60.5
				c-4.7,7.5-10.2,14-17.1,19.4c-11.2,8.8-18.4,20-20.3,34c-1,7.4-0.9,15-1.1,22.5c-0.2,6.8-3.9,10.2-10.5,9
				c-8.7-1.7-17.3-3.7-26-5.4c-1.8-0.4-3.7-0.5-5.5-0.5c-14.5,0-29-0.1-43.5,0c-9.8,0-19.4-1.5-28.4-5.1c-9.8-4-16.6-11.7-21.5-20.9
				c-5.8-10.8-10.2-22.3-17.9-32c-6.2-7.9-14.2-11.4-24.1-12c-11-0.7-21.2,2.1-30.9,6.2c-15.7,6.6-31.9,11-48.6,13.7
				c-20,3.2-31,14.8-35,34.1c-1.2,5.8-2.6,11.6-6.4,16.6c-4.5,5.9-10.3,7.7-17,5.8c-6-1.7-11.8-4.1-17.5-6.4
				c-10.9-4.4-21.7-8.9-32.5-13.5c-7.8-3.3-15.2-7-20-14.5c-9.9-15.1-21.3-29.4-26.3-47.1c-4.1-14.6-5.9-29.8-3-44.9
				c2.2-11.2,9.6-18.4,20.4-22c6.3-2.1,12.6-4.2,19-6c15.1-4.3,24.1-14.5,29-29c2.3-6.8,4.5-13.8,8.1-19.9
				c6.1-10.3,16.1-15.2,27.8-17.2c9.7-1.6,19.5-3,28.9-5.6c9.7-2.7,16.1-9.5,20.1-18.8c7.4-17.4,16.1-33.9,31.9-45.6
				c6.8-5.1,14.6-7,22.6-8.9c12.2-2.9,24.3-5.6,36.5-8.5c8.7-2.1,17.2-4.9,26-6.3c10.5-1.7,18.3,2.8,24.1,11.8
				c5,7.7,10,15.6,16.1,22.4c7.7,8.7,16.3,16.6,26.4,22.6c5.7,3.4,12.5,2,19.5-4c5.6-4.7,9.7-10.7,11.9-17.5
				c4.6-14.7,14.7-23.8,28.1-30c3.6-1.7,7.3-3.6,10.5-6c7.3-5.8,10.7-13.7,11-22.9c0.2-5.8-0.3-11.7,0.1-17.5c0.8-11,1.6-22,3-33
				c2.3-17.4-9.1-24.1-22.5-20.4c-5.6,1.5-10.7,4.6-16,6.9c-10.1,4.1-20.3,8-31.5,8.7c-9.8,0.6-16.5-3.6-22.1-11.1
				c-2.7-3.5-6-6.7-9.5-9.5c-5-4.1-10.5-3.8-16.5-1.7c-6.4,2.3-13.2,4.2-20,5c-13.8,1.7-25.2-4.4-35.5-12.9
				c-9.8-8-19.7-15.9-31.5-21c-6.1-2.6-12.2-5.2-18-8.5c-13.5-7.8-20.3-21.1-27.1-34.4c-5.2-10.2-10.2-20.6-16.7-29.9
				c-5.4-7.7-16.8-13.2-29.3-6.2c-5.7,3.2-11.6,6.2-17.5,9c-14.6,6.9-29.1,4.5-43.5-0.9c-16.2-6.2-30.1-16.2-42.9-27.6
				c-16.3-14.4-35.6-21.7-56.5-25.3c-7.4-1.3-15.3-3-21.9,2.5c-4.4,3.7-8.8,7.8-11.9,12.5c-9,13.2-20.7,22.3-36.1,26.3
				c-4.2,1.1-8.6,1.4-13,1.5c-11.2,0.5-22.3,0.9-33.5,1c-13.5,0.2-21.5-6.3-25.6-19.4c-2.2-7.1-2.7-14.2-2.3-21.5
				c0.1-1.5,1-3.2,2-4.5c6.2-8.3,15.2-11.7,25-13.5c13.8-2.5,27.6-5,41.5-6.9c8.4-1.2,17-1.7,25.5-2c13.6-0.6,19.4-5.8,21.9-16.1
				c1.9-7.9,3.4-15.9,4-24c1.3-17.1,6.7-32.2,18.5-45.1c12.6-13.8,28.1-20.7,46.1-24c19.8-3.6,37.2-12.4,53.1-24.8
				c9.2-7.2,18.9-13.7,28.5-20.5c0.3-0.2,1,0.1,1.5,0.2"/>
			<path class="st1" d="M288.4,1078.4c-0.7-0.5-1.5-0.9-2-1.5c-7.6-11.1-18.5-15.5-31.5-15.5c-9.7,0-19.4,0.4-29-0.2
				c-4.9-0.3-10-1.4-14.4-3.5c-12.4-5.8-23.8-13-33.1-23.4c-7.1-7.9-10.5-16.9-7.4-27.5c2.5-8.7,8.9-13.9,16.9-17.5
				c8.8-4,18-7.1,25.5-13.5c2.4-2.1,4.5-4.5,6.5-7c11.3-13.6,26.3-21.8,42-29c10.8-5,21.6-10.4,29.4-19.5c12.9-15,24.6-31,29.9-50.5
				c2.5-9.2,0.6-18.8-3.4-27.4c-8.9-19.1-19.8-37.1-32.4-54c-10.4-14-24.3-22.7-41-27c-15.1-3.9-25.7-12.8-30.5-28
				c-1.5-4.8-3.1-9.7-5.6-14c-8.6-15-22.5-22.4-38.9-26.1c-7.4-1.7-14.6,0-21.5,1.4c-17.3,3.3-31.4-3.7-36.5-20.8
				c-5.2-17.5-14.6-32.4-25.9-46.6c-12.6-15.8-16-33.8-10.1-53.4c2.7-9.1,10.3-13.3,17.5-18c7-4.6,14-9.3,20.5-14.5
				c6.8-5.5,10.9-13.3,15.1-20.9c2.5-4.5,5-8.9,8-13c4.8-6.3,16.7-9.4,24.9-6.5c8.4,3,16.8,6.5,25,10c20.4,8.6,39.5,5.2,58-5.6
				c4.5-2.6,8.9-5.4,13-8.5c6.3-4.8,13.9-5,21-5.3c21.3-1,42.1-4.5,61.9-12.4c12.3-4.9,23.6-12,35.6-17.7c9.8-4.7,20-8.6,28.4-15.6
				c5.5-4.6,10.4-9.9,15.6-14.9c5.6-5.5,12.1-9.9,19.5-12.5c10.9-3.8,21.7-2.6,32.5,0.9c13.5,4.4,27.2,7.2,41.5,8.1
				c11.6,0.7,21.9,4.5,30.7,13.1c6.7,6.5,15.2,11.4,23.3,16.1c14.1,8.3,24.6,19,27.9,35.6c1,5.2,1.9,10.3,3,15.5
				c1.9,8.9,5.2,17.1,9.8,25.1c6.6,11.3,9,23.7,8.8,36.9c-0.2,11.6,2.8,22.8,10.4,31.9c5,6,11.7,10,19.9,9.5
				c6.7-0.4,13.3-1.5,20-1.9c7-0.4,14,0.9,19.9,4.5c11.5,7.1,21.1,16.4,29,27.4c4.5,6.2,3.6,15.5-1.5,18.3c-2.8,1.5-6.3,2.6-9.4,2.5
				c-8.3-0.4-16.7-1.2-25-2.4c-20-2.8-37.8,0.6-51,17.5c-6.4,8.2-13.1,16.2-19.5,24.5c-6.3,8.2-13.7,15.2-22.6,20.4
				c-19.2,11.1-34.6,26.1-47,44.5c-8,11.9-16.7,23.3-27.5,33c-5.3,4.8-10.7,9.3-16,14c-17.8,16.1-18.5,38.8-9.5,59
				c1.6,3.7,3.5,7.2,5,11c2.9,7.8,1.9,16,1,24c-2.6,22.5-9.6,44.5-7.4,67.5c0.8,8.8,1.3,17.7,2,26.5c0.9,10.7-4.9,17.5-13,23
				c-3.1,2.1-6.4,4-9.5,6c-8.1,5.3-11.5,12.9-11.6,22.5c0,8.7,0.8,17.1,3.1,25.5"/>
			<path class="st1" d="M315.4,1078.4c-0.8-2.5-1.7-5-2.5-7.5c-1.9-6.2-3.4-12.4-5.6-18.5c-3.5-10-11.8-14.4-21.5-15.9
				c-8.6-1.3-17.3-1.3-26-2.2c-7.9-0.8-15.8-1.5-23.5-3.1c-8.1-1.7-10.9-9.5-6.5-16.4c7.2-11.5,14.5-22.9,21.5-34.5
				c7.9-13.1,19.8-22.1,32.1-30.4c11.2-7.5,21.4-16.1,31-25.5c11-10.7,22.4-21,33.4-31.6c3.8-3.7,7-8,10.6-11.9c1.9-2.1,4-4,6-6
				c5.1-5,11-3.2,17-2.2c4.4,0.8,9.1,1,13.4,0c13.7-3,17.7-15.1,14.4-26.8c-1.6-5.7-4.1-11.1-6.4-16.5c-3.8-8.6-3.9-17.1-1-26
				c2.1-6.7,4.3-13.6,4.8-20.5c0.5-6.1-1.3-12.3-2.3-18.5c-1-6.4-2.6-12.6-3.4-19c-1.1-8.7,2.3-16.7,5.5-24.5
				c7-16.5,17-31.1,29.5-44c7.7-8,13.8-16.9,16.9-27.6c1.1-3.7,1.7-7.6,2-11.5c0.6-8.2,0.8-16.3,1-24.5c0.1-5.5,0.4-11,0-16.5
				c-0.7-9.2-2.1-18.3-2.9-27.5c-0.9-10.9,0.7-21.5,6.5-31c2.9-4.7,6.3-9,9.5-13.5c6.4-9,9.5-18.9,9.1-30
				c-0.2-5.1-0.3-10.6,1.1-15.4c2-6.9,7.7-11.1,13.8-14.6c11.2-6.3,22.4-6.4,33.5,0.1c10.3,6.1,20.7,12.1,30.4,19.1
				c9,6.4,12.6,16.4,15.2,26.9c2.8,11.5,6.1,22.8,11.4,33.5c5.5,11,8.4,23,10.3,35c2,12.5,7.1,23.7,12.2,35
				c4.1,9.1,7.8,18.3,6.9,28.5c-0.3,3.9-0.9,7.8-2,11.5c-4,13.5-7.8,27-15.4,39c-6.3,9.9-14.8,17.1-25,22.5c-5.7,3-11.5,5.8-17,9
				c-9.4,5.7-16.8,13.5-23,22.4c-8.1,11.7-15.8,23.7-24.6,34.9c-5.6,7.1-12.4,13.3-19.4,19c-15.3,12.5-20.6,29.9-24.3,48.1
				c-1.6,7.7-2.8,15.6-2.9,23.5c-0.1,6.5,1.4,13.1,2.9,19.5c2.1,8.6,5.6,16.9,7.2,25.6c1.3,7.1,2.7,14.4,0.9,22
				c-1.3,5.8-0.8,12-1.2,18c-0.5,7-1.5,14-1.9,21c-0.8,12.9-8.6,20.6-19,26.5c-3,1.7-5.9,3.4-9,5c-8,4.1-11.1,11.3-10.8,19.5
				c0.4,13,1.9,26,2.8,39c0.2,3.3,0,6.7,0,10"/>
			<path class="st1" d="M1124.7,1078.9c-2.3-9-4.4-18.1-7.1-27c-3.4-11.4-11-14.1-20.4-13.5c-4.7,0.3-9.3,1.4-14,1.9
				c-4.7,0.5-9.3,1.1-14,1c-15.8-0.4-31.1,2.8-46.5,5.6c-8.8,1.6-17.8,2.8-26.5,0.4c-8.6-2.4-14.7-8.3-19.1-16.3
				c-4.9-8.9-9.7-18.1-16.2-25.8c-6-7.2-14.1-12.5-21.2-18.7c-6.7-5.9-14.1-11.3-19.8-18.1c-11-13-8.9-20.2-1.4-33.7
				c6-10.9,15-19.9,25.7-26.6c15-9.4,27.4-21.5,37.1-36.5c11.7-18.1,29.7-26,49.9-30c16-3.2,30.9,1,44.9,7.7
				c12,5.7,15.9,17.3,17.7,29.8c1.4,9.7,0.8,19.7,4.8,29c3.1,7.1,7.3,12.8,14.6,16c6.4,2.8,12.6,5.9,19,8.4
				c8.9,3.5,14.7,9.8,18,18.6c1.7,4.7,3.3,9.3,5,14c2.3,6.4,6.5,9.6,13.4,8.3c13.8-2.6,27.4-6.3,39-14.8c3.5-2.6,6.9-5.4,10-8.5
				c10.7-11,22.2-20.7,35.5-28.5c11.3-6.6,20.4-15.5,25.9-27.5c2.3-5,4.2-10.5,4.9-16c0.6-4.9-2.4-9.2-6.8-12
				c-4.2-2.7-8.3-5.4-12.5-8c-8.4-5.1-16-11.3-21.4-19.6c-6.8-10.3-5.6-21.8-2.4-32.9c3.2-11.2,7.4-22.1,11.4-33
				c6.9-19,21.8-26.4,40.9-28.2c8.7-0.8,16.9-0.6,24.5,3.7c18.5,10.5,24.1,30.8,15.3,48.9c-5.1,10.5-12.5,19.9-18.2,30.2
				c-4.6,8.3-8.1,17.1-8.2,26.9c-0.1,6.4,2.7,11,7.5,15.1c5.4,4.6,11,9.1,15.4,14.5c9.3,11.3,14.1,25,18.1,38.9
				c4.5,15.5,9.4,30.9,16.5,45.5c5,10.4,13.4,16.6,24,20.6c4.3,1.6,8.5,3.7,12.5,6c9.8,5.4,14,14.6,15.9,25c0.8,4.1,1.2,8.3,1,12.5
				c-0.8,16.3,2.6,31.8,8.1,47"/>
			<path class="st1" d="M1919.9,143.5c-12.2,1.7-24.7,1.9-36.4,5.3c-21.2,6.2-33.8,21-33.8,44.2c0,12.5,2.1,25,3.8,37.5
				c1.6,11.4,3.6,22.8,6,34c2,9,4.3,17.9,7.5,26.5c3.4,9,5.9,18.2,6.1,27.6c0.3,14.4-5.3,20.3-20.3,21.9c-8.6,0.9-17.3,0.7-26,1.1
				c-3.2,0.2-5.8-0.7-8-3c-2.8-2.9-5.8-5.5-8.4-8.5c-10.1-11.6-23.4-16.7-38-18.3c-11.1-1.2-22.3-1.1-33.5-1.1
				c-10.1,0-18.6-2.8-25.6-10.5c-8.8-9.8-18.3-19-27.4-28.6c-6-6.4-9.3-14.4-12.6-22.4c-1.6-3.8-3.5-7.7-6-11
				c-4.2-5.4-9.2-4.8-12.3,1.5c-1.9,3.8-3.1,7.9-4.6,12c-3.5,9.7-6.3,19.7-10.7,28.9c-3.1,6.6-8.1,12.4-12.8,18
				c-6.3,7.6-15.2,7.9-23.3,4.8c-13.6-5.2-26.9-11.5-40-17.9c-11.5-5.6-17.8-15.7-21.1-27.9c-3-11.2-5.5-22.5-9.2-33.4
				c-2.3-6.9-6.4-13.3-9.3-20.1c-2.9-6.7-3.7-14-2.3-20.9c1.5-7.6,9.7-15.6,22.3-13.2c10.4,2,19.5,7,29,11.1
				c12,5.2,24.5,8.7,37.5,10.5c8.2,1.1,16.7-3.9,19.3-12.5c2.3-7.6,3.4-15.6,4.6-23.4c2-12.3,2.5-24.8,7.4-36.5
				c4.2-10,12.7-13.8,22.1-15.3c24.9-4.2,49.5-9.6,73.5-17.4c7.7-2.5,16.2-3.3,24.4-3.6c15.4-0.5,30.8-1.5,46-4.1
				c13.3-2.3,26.7-3.9,40-6.1c9.9-1.7,18.2-7.3,26.4-12.6c10.9-7,22.1-8,34.1-3.9c3.8,1.3,7.7,2.3,11.5,3.5"/>
			<path class="st1" d="M480.9,0.1c-3.2,8-6.3,16-9.5,24c-4.6,11.3-4.5,23.2-3.3,35c1,10.4,3.1,20.7,4.9,31c2,11.5,6.3,13,17.5,12.4
				c5.4-0.3,10.6-1.4,16-1.9c9.7-0.8,19.4-0.8,29-2.2c9.8-1.4,19.5-3.8,29-6.4c10.5-2.9,19.7-0.9,28.5,5c12.6,8.4,21.5,19.3,25.4,34
				c1.3,5.1,2.7,10.3,3.5,15.5c1.9,13.2,10.1,19.8,22.6,20.8c11.8,1,23.7,1.2,35.5,1c10.3-0.1,20.7-1.4,31-1.8
				c6.5-0.3,10.5,4.4,11.1,10.9c0.8,9.3-2.7,17.6-7.3,24.9c-10.3,16.5-16.2,34.5-20.8,53.1c-2.8,11.3-6.5,22.3-13.3,32.1
				c-5.8,8.2-13.5,11.5-23.1,12c-10.7,0.5-20.9-2-31-4.6c-15.2-4-24.2-14.7-29.5-28.9c-5.2-13.7-10.5-27.3-15.5-41
				c-4.8-13.2-13.8-21.9-27-26.5c-22.9-8.1-42.8-21.4-61.5-36.5c-10.6-8.6-15.8-20.2-18.1-33.4c-0.7-4.1-1.6-8.1-3-12
				c-1.8-4.9-5.4-7.2-10.9-7.1c-17,0.2-33.5,3.3-50,6.5c-5.9,1.2-12,1.8-18,2.5c-11.5,1.5-19.1-4.5-23.3-14.1
				c-3.9-8.9-6-18.5-8.7-27.9c-2.5-8.8-4.8-17.6-7-26.5c-3.8-15.3-7.4-30.7-11-46c-0.3-1.3-0.7-2.7-1-4"/>
			<path class="st1" d="M1657.5,0.1c-6.5,13-13.1,26-19.5,39c-4.4,9-8.5,18.1-13.1,27c-4.5,8.7-11.3,15.3-19.9,20
				c-15.4,8.3-29.3,18.5-42,30.5c-9.5,9-20.2,16.1-33,19.5c-7.9,2.1-15.7,1.5-23.5-0.9c-4.8-1.5-9.6-3.2-14.5-4.5
				c-7.4-1.9-12.5,0.4-14.9,7.5c-1.8,5.4-2.7,11.2-3.6,17c-1.3,8.7-0.2,18.1-4.7,25.9c-10.9,19-29.6,30.6-56.3,23.6
				c-11.3-3-21.2-8.8-31-15c-16.2-10.2-33.4-18.5-51-26c-15.4-6.6-23.9-17.8-25.2-35c-0.8-9.9-0.7-19.5,2.2-29
				c5.9-19.4,18.2-33.1,37.1-39.8c12.4-4.4,25.6-6.8,38.4-10.2c7.1-1.9,14.3-3.6,20.9-6.6c13.9-6.2,28.1-7.4,43.1-5.6
				c6.3,0.8,12.9,2.7,19.6-1.1c5-2.8,7.5-7,9.3-11.7c2.9-8,5.1-16.3,7.6-24.5"/>
			<path class="st1" d="M616.3,1078.4c-15.2-15.2-23.7-33.8-28.6-54.5c-3-12.6-5.9-25-4.9-38c0.3-3.8,0.7-7.7,1-11.5
				c1-15-5.2-27.2-16.6-35.8c-16.8-12.6-31.1-27.5-45.5-42.6c-8.5-8.9-7.1-18.7-0.8-26.1c10-11.8,22.6-20.4,38-22.2
				c11.5-1.4,23.5-1.6,34.9,1.7c12.7,3.7,25.2,8.3,38,11.8c6.5,1.8,13.3,2.6,20,3c7.6,0.5,15.3,0.4,23,0c7.6-0.4,13.9,2.4,19,7.6
				c17.4,17.7,38.5,29.1,61.5,37.4c3.3,1.2,6.7,2,10,3c5.1,1.6,8.2,5.2,8.4,10.5c0.9,20.4,10,36.1,27.1,46.9
				c6.5,4.1,13.3,8.2,20.5,10.9c15.2,5.8,25.1,16.5,31.9,30.7c7.5,15.5,15.1,30.9,26.5,44c6.8,7.7,13.7,15.3,20.5,23"/>
			<path class="st1" d="M995.7,0.1c-0.3,9-0.2,18-1.1,27c-1.5,15.2-11.6,23-25.4,26.4c-20.3,5.1-40.7,9.6-61,14.6
				c-15.5,3.8-30.5,2.2-45.5-2.5c-4.2-1.3-8.6-2.2-13-3c-4.8-0.8-9.4-0.6-12.5,4c-3.2,4.8-1.4,9.6,1,13.9c3.7,6.6,8.8,12.4,10.5,20
				c3.4,15.2,2,29.3-9.5,41c-4.8,4.9-11,6.8-17.5,6.9c-6.7,0.1-13.3-0.9-20-0.8c-5.3,0-10.7,0.9-16,1.4c-10.7,1.1-21.2,2.1-32,0.7
				c-10.5-1.4-15.9-7.9-18.8-16.8c-1.9-5.9-2.8-12.2-3-18.4c-0.5-10.5,0.1-21-0.2-31.5c-0.3-12.5,3.1-23.8,10.1-34
				c5-7.4,10.7-14.5,15.4-22.1c5.1-8.3,9.6-17,10.6-26.9"/>
			<path class="st1" d="M2,801c4.7-1.8,9.4-3.5,14-5.5c6.8-2.9,13.4-6.2,15.9-14c1-3.2,1.6-6.6,2-10c0.7-5.3,0.7-10.7,1.6-16
				c2.3-13.1,12.2-20,22.4-26.5c5.3-3.4,11.3-5.9,15-11.5c5.2-7.8,6.5-16.5,5.9-25.5c-0.7-10.5-2.5-20.8-8.4-30
				c-4.3-6.7-8.8-13.4-12.4-20.5c-7.6-14.9-11.5-31-14.1-47.5c-1.1-7-2.4-14-3.5-21c-1.6-10.9-3.4-22,3.1-31.9
				c3.1-4.7,7.3-8.6,11.4-12.5c3-2.8,7-4.7,9.9-7.6c9.5-9.8,10.5-17.7,0-29.9c-10.2-11.8-23.8-17.6-38.9-20.6c-9-1.8-17,0.3-24.5,5"
				/>
			<path class="st1" d="M190.4,1078.4c-10.8-13.3-22.3-26.2-32.3-40.2c-6.2-8.8-10.4-19.1-15.2-28.9c-4.6-9.6-12.1-16.2-21.1-21.5
				c-12.7-7.4-26.8-10.1-41-12.5c-11.7-2-23.4-4.2-35-6.5c-9.5-1.9-16.3-8-22-15.5c-5.9-7.8-12.5-14.6-22.5-17"/>
			<path class="st1" d="M918.2,1059.4c-14.1-2.9-25.8-10-34.9-21.1c-9.4-11.4-14.6-24.9-18.6-38.9c-1.8-6.4-2.4-13.1-6.9-18.6
				c-5.3-6.4-12.7-8.3-20.1-10.5c-8.6-2.5-17.3-4.8-24.5-10.5c-2.5-2-5-4-7-6.5c-4.6-6.1-3.4-16,3-20.3c6.2-4.1,13.2-7.2,19.9-10.6
				c6.2-3.2,12.9-5.6,18.4-9.7c8-5.9,12.1-14.5,14.2-24.3c2.9-13.3,4.2-26.6,0.8-40c-1.8-7.2-5-13.7-10.4-19.1
				c-7.3-7.3-14.5-14.5-24.5-18c-15.4-5.3-28.4-3.6-37.3,11.1c-10.2,16.8-24.1,29.2-41.2,38.3c-2.6,1.4-6.4,2.7-8.8,1.8
				c-3.1-1.2-3.7-5.1-3.7-8.7c0.1-8,0.5-16-0.1-24c-0.5-5.9-1.9-11.9-4-17.5c-3.2-8.6-11-11.8-19.3-11.9c-7.7-0.1-15.5,0.6-22.9,2.5
				c-9.3,2.4-15.7,9.2-20.1,17.8c-1.8,3.6-4.1,6.9-5.9,10.5c-4.5,9-17.1,13.7-27,11.5c-11.2-2.4-21.2-7.3-31-13
				c-9.7-5.6-19.6-11-31.5-10.6c-8.5,0.3-17,0.2-25.5,0c-2.3,0-4.9-0.5-6.9-1.5c-2.7-1.4-3.9-3.5-2.1-6.9
				c9.9-19,21.1-37.1,33.6-54.4c6.2-8.6,14.9-14.5,24-19.4c15.7-8.5,30.3-18.3,42.5-31.5c4.2-4.6,9.2-8.5,13.9-12.5
				c11.7-10.2,25.2-10.9,38.9-5.9c13.5,4.9,26.6,11,39.1,18.2c7.8,4.5,12,11.4,15.4,19.2c1.9,4.4,3.1,9.1,5.1,13.4
				c2.2,4.6,4.8,9.5,10.4,10.4c6.2,1.1,12.2-5.3,12.5-12.9c0.3-7.6,0-15.1-2.4-22.5c-3.5-10.9,0.3-17.8,11.4-20.9
				c5.6-1.6,11.3-2.5,17-3.5c15.2-2.8,24.6-11.9,29-26.5c2.7-8.8,4.8-17.8,8.1-26.5c4.2-11,12.3-18.8,21.8-25.6
				c19.8-14.2,42.1-22.2,65.5-27.5c6.2-1.4,12.3-3.5,18.5-4.9c5.4-1.2,10.6-2.5,16.5-1.3c9,1.9,14.3,6.8,17.5,15.2
				c4.7,12.5,5.5,25.4,6.1,38.5c0.6,14.5,1.4,29,9.3,42c9.3,15.3,21.8,25.2,40.5,24.4c9-0.4,18-2.1,27-2.8c11.3-1,21.5,2.2,30.5,9
				c9.1,6.9,17.8,14.2,27.1,20.9c7.2,5.2,15.6,7.7,24.4,8c16.6,0.5,28.9-7.5,39.6-19.4c10.6-11.8,14.5-26.1,17.5-41
				c2.3-11.2,4.6-22.4,7.5-33.5c3.8-14.4,13.2-24,26.4-30.6c6.3-3.1,12.4-6.8,18-11c8.4-6.3,9.3-15.7,5.6-25.4
				c-2.9-7.5-6.1-15-8.9-22.5c-3.4-9-4.8-18.2-3.8-28c1-9.8,2.8-19.2,6.2-28.5c3-8.2,7.6-15.1,14.5-20.5c11.5-9.1,24.8-8.4,37.5-1
				c14.3,8.3,26.1,19.8,36.9,32.1c9.1,10.3,19.8,18.3,32.7,21.5c12,3,17.2,18.5,12.4,29.9c-2.8,6.8-7.4,11.4-14,14.6
				c-7.8,3.8-15.7,7.7-22.9,12.6c-5.4,3.6-10.3,8.4-14.5,13.4c-4.9,5.9-4.3,13.4-2.6,20.4c4.1,16.1,6.2,32.5,8,49
				c1.5,13.2,4.3,26.3,6.3,39.5c0.6,4.3,0.8,8.7,0.4,13c-0.4,3.9-4.4,7.4-8.4,7.5c-7.7,0.3-15.3,0.4-23,1c-16.9,1.5-33.5,5-49.5,11
				c-9,3.4-15.3,10.3-19.3,18.5c-9.2,18.7-16.7,38.2-21.4,58.5c-4,17,0.4,32.4,13.2,45c4.7,4.6,9.4,9.4,13.5,14.5
				c7.9,10,8.5,19.2-1,28.9c-3.4,3.5-7.5,6.6-11.5,9.5c-8.1,6-16.2,11.9-24.5,17.5c-5.3,3.5-10.7,7.1-17.4,7.6
				c-8.9,0.7-15.9-3.6-21.9-9.1c-11-10.2-23.3-18-37.6-23c-16-5.5-22.8-18-25.1-33.9c-0.9-6.1-2.1-12.2-4-18
				c-3.4-10.5-12-15.1-21.9-18c-12.5-3.7-25.1-7.2-37.5-11c-14.9-4.7-27.8-0.4-40.6,7.4c-19,11.7-34.4,27-48.7,43.9
				c-6.2,7.4-15,12.7-22.8,18.7c-10.2,7.8-19.9,15.9-28,26c-7.9,9.8-16.2,19.4-24.5,29c-4.6,5.3-5.1,12-3.6,17.9
				c0.9,3.7,5.2,7.1,8.7,9.5c9.4,6.4,19.3,12,28.9,18.2c10.1,6.5,18.8,14.5,23.9,25.5c3.5,7.5,5.2,15.3,3.3,24
				c-2.5,11.2-11.5,15.7-21.7,16.9c-1.8,0.2-3.7,0-5.5,0"/>
			<path class="st1" d="M1685,726.5c-4.2-0.7-8.4-1-12.5-2.1c-12.4-3.2-21.4-11.2-27.3-22c-6.3-11.4-11.3-23.5-16.6-35.4
				c-2.9-6.5-6.7-12.4-12.1-16.9c-8.3-7-17.9-7.1-27.4-3c-13.8,6-27.4,12.4-41,19c-9.6,4.6-19.4,7.5-30,8.5
				c-9.2,0.9-18.4,2.4-27.5,4c-10,1.7-18.1,7.3-25.5,14c-4.9,4.5-9.6,9.1-14,14c-6.4,7.2-13.7,8.9-23.1,7.2
				c-12.2-2.2-23.1-6.9-31.3-15.8c-8.2-9-15.5-19-22.6-28.9c-5.5-7.8-7.8-16.8-7.7-26.4c0.1-10.9,4.9-19.2,14.1-24.3
				c7.9-4.4,16.6-7.4,24.9-11.2c11.7-5.3,20.1-14,26.6-24.9c4.3-7.3,9.6-14,14.4-21.1c7.4-10.7,18.3-15.4,30.5-17.3
				c7.4-1.2,15-0.6,22.5-1.2c7.5-0.6,15-1.1,22.1-4.8c7.6-4,10.1-10.5,10.8-18.1c0.5-6,0.4-12,0-18c-1.1-17,20.9-35.7,39.1-30.2
				c8.3,2.5,9.1,5.2,7.3,14.6c-1.3,6.6-3.7,13.1-5.9,19.5c-3.1,8.7-2.7,17.2-0.1,26c4,13.8,6.9,28,10.8,41.9
				c1.4,4.9,3.4,10.1,6.5,13.9c7.3,8.8,13.1,10,24.3,5.2c7.3-3.1,14.5-6.6,22-8.9c10.8-3.2,21.5-0.7,31.4,3.5
				c10.2,4.3,20.7,7.7,31.6,8.1c9.7,0.3,19.4-1.7,28-6.8c7.6-4.5,12-11.5,15-19.5c5.7-15.5,10.7-31.3,18.4-46.1
				c2.9-5.6,3.8-12.2,5.7-18.4c3-10.2,10.2-16.4,20-18.9c13.4-3.3,25.4-9.8,37.5-16.1c7.6-3.9,15-8.2,24-8
				c9.4,0.1,15.1,5.8,15.5,15.5c0.5,11.2-3,21.4-7.1,31.5c-7.9,19.4-18.7,37.2-31.9,53.6c-7.5,9.3-11.3,20-12.1,32
				c-1.5,20.8-9,38.9-24.4,53.5c-6.6,6.2-12.8,12.9-19,19.5c-8.1,8.6-13.8,19-18.9,29.5c-7.3,15.2-18.5,24.5-35.2,26.8
				c-9.8,1.4-19.7,2.1-29.5,3.1"/>
		</g>
		<path class="st2" d="M687.3,773.5c-3-0.8-6.2-1.2-9-2.6c-7.5-3.7-12-11.5-7-20.9c3.2-6,6.8-11.5,13.4-14.6
			c7.9-3.7,16.2-2.2,21.5,5.1c2.5,3.5,4.5,7.5,6,11.5c2.8,7.3,0.7,12.8-5.9,17c-5.7,3.6-11.9,4.8-18.5,4.5"/>
		<path class="st2" d="M1072.2,784.5c-8.2-2.2-16.4-4-24.5-6.6c-5.9-1.9-11.6-4.5-17-7.5c-14.4-7.8-13-24.3-1-32.3
			c12.1-8,25.8-10.9,39.9-7.4c9.7,2.4,17.7,8.5,22.5,17.8c2.8,5.5,6,10.8,5.6,17.5c-0.4,9.2-4.6,15.2-13.6,17.4
			c-3.7,0.9-7.6,0.8-11.5,1.1"/>
		<path class="st2" d="M928.2,784.5c-3.8-0.8-7.1-2.2-9.5-5.5c-2.3-3-2.8-7.6-0.4-10.5c2-2.3,4-4.9,6.5-6.4c7.7-4.6,16-7.8,24.9-8.6
			c9.1-0.8,14.4,6.5,9.4,17.4c-4.3,9.4-13.2,12.6-22.9,13.5c-2.5,0.2-5,0-7.5,0"/>
		<path class="st2" d="M337.4,795.5c-11-3.5-20.4-10.1-28.9-17.6c-10.6-9.5-21.3-19.2-30.4-30.1c-8.4-10.1-6-26,7.9-32.1
			c4.7-2.1,10.6-2.3,15.9-2c8.9,0.5,17.5,2.5,25.1,8.2c8.6,6.4,11.8,14.9,12.8,24.7c1.2,12.3,1.1,24.7,5.5,36.5
			c0.5,1.4,0.5,3,0.5,4.5c0.1,6.6-1.2,7.9-8,8"/>
		<path class="st2" d="M447.4,799.5c-7.2-3.6-9.2-10.8-11.4-17.5c-3.4-10.3-7-20.8-8.9-31.5c-3.1-18,1.4-34.2,14.2-48.1
			c11.2-12.2,25.2-17.4,41.1-18.9c4.9-0.5,6.4-2.8,5-7.5c-4.7-15.7-9.7-31.2-13.9-47c-1.8-6.6-2.2-13.6-2.6-20.5
			c-0.6-11.3-0.6-22.7-1.1-34c-0.6-12.9,2.9-24.6,12.2-33.3c10.6-9.9,17.9-22,25.4-34.1c7.6-12.2,18-12.8,28.5-3.1
			c8.3,7.6,11.4,17.8,15.4,27.6c5.5,13.3,11.1,26.6,16.4,40c4.2,10.7,7.9,21.7,12.1,32.5c2.4,6.1,5.4,12,7.9,18
			c6.1,14.9,4.9,29.9,0.6,45c-2.6,9.2-5,18.3-12,25.5c-10.8,11.1-23.8,13.2-38,9.3c-5.6-1.6-10.6-5.4-16.1-7.8
			c-7.6-3.2-15.2-6.3-23-8.9c-1.8-0.6-4.6,0-6.3,1.1c-0.8,0.5-0.6,3.6-0.1,5.2c2.6,7.6,5.8,15,8.4,22.5c5.9,17.3,1,33.2-7,48.5
			c-7.9,15.1-21.2,24.7-35.1,33.4c-3.3,2-7.6,2.5-11.4,3.6"/>
		<path class="st3" d="M1557.1,52.5c-5.1-3.5-6.3-7.1-2.8-12.9c3.1-5.2,7.4-9.9,11.4-14.5c0.8-0.9,3.4-1.5,4.3-0.9
			c1.6,1.1,3.5,3.2,3.4,4.8c-0.2,9.6-4.3,17.5-12.4,22.9c-0.9,0.6-2.3,0.4-3.5,0.6"/>
		<path class="st2" d="M875.2,812.5c-20.7-6-39-16.9-57.5-27.5c-7.9-4.6-10.9-12.2-11-21c-0.1-16.2,3.6-31.4,13.6-44.4
			c4.4-5.8,9.7-10.9,14.9-16c8.3-8.2,12.3-18.1,13.5-29.5c0.8-8,2-16.1,3.5-24c3.2-16.4,13.8-27,27.9-35.1c15.6-9,32.7-13.1,50-16.3
			c5.1-1,10.3-1.8,15.5-2c12.3-0.3,18,3.7,22.4,15.4c1.7,4.6,2.7,9.6,3.5,14.5c0.7,4.8,1,9.7,1,14.5c0.1,14,3.3,27.5,6.5,41
			c1.7,7,3.4,14,5,21c0.8,3.5-2,7.5-6.5,10c-11,6-21.7,12.6-33.1,17.8c-10,4.6-20.5,8.1-30.9,11.6c-17.7,5.9-28.4,18.2-31.7,36.1
			c-1.5,8.2-0.2,17-0.3,25.5c0,2-0.5,4.3-1.6,5.9c-0.8,1.3-2.9,1.8-4.4,2.6"/>
		<path class="st2" d="M1271.1,835.5c-9.2-3.5-13.9-10.7-12.4-22.5c1.5-11.7,4.3-23.3,9.4-34c4.9-10.2,15.7-15.4,26.9-13.5
			c7.7,1.2,16,11,16.5,19c0.4,6.9-0.9,13.3-5,19c-5.7,8.1-11.3,16.3-17,24.5c-4.4,6.3-10.5,8.7-18,7.5"/>
		<path class="st2" d="M1582,860.5c-3.9-2.9-4.8-7.3-1.9-12c1.5-2.4,3.4-4.6,5.5-6.4c1.2-1,3.7-2,4.8-1.4c1.7,0.9,3.5,3,4,4.8
			c1.3,6-5.7,14.5-11.8,15"/>
		<path class="st2" d="M257.4,877.5c-5.8-1.9-9.6-6.1-13-11c-5.6-7.8-11.4-15.4-18.9-21.6c-8.6-7.1-19.1-9.3-29.5-11.4
			c-9.1-1.8-18.4-3.2-27.5-5.1c-10.7-2.2-21.3-4.6-32-7c-8.1-1.8-15.4-5.3-22-10.5c-6.1-4.8-7.8-11.7-4.5-18.5
			c1.7-3.4,3.1-7.2,5.6-9.9c9.3-10.1,15.5-11.8,26.9-4.7c5.4,3.4,11.1,6.5,17,8.9c3.9,1.6,8.3,2.6,12.4,2.5
			c15-0.3,29.1,4.4,43.5,7.7c6,1.4,11.9,3.3,18,4.4c18.5,3.2,29.9,14.2,36,31.6c3.9,11.2,6.1,22.5,1.5,34c-2.4,5.9-5.8,10.6-13,10.5
			"/>
		<path class="st2" d="M1668,882.5c-6.6-3.1-7.8-4.5-6.4-13.5c1.6-10.1,3.8-20.1,8.3-29.6c2.8-6.1,6.9-10.6,13.6-10.8
			c7.1-0.2,13.9,6.6,16,14.3c1.2,4.5,0.3,8.7-1.4,13c-5.6,13.7-16.5,21.2-29.6,26.5"/>
		<path class="st3" d="M1413.1,895.5c-16.8-5.9-24.9-18.5-23.5-36.5c0.4-6,3.2-9.6,9-11.5c14-4.6,26.3,0.4,37.3,8.2
			c4.9,3.5,6.2,10.2,4.1,16.2c-4.4,12.6-12.8,21-26.4,23.5"/>
		<path class="st2" d="M891.7,899c-4.9-1.5-6.6-5.5-7.5-10c-2-10.1-2.4-20.3-0.5-30.5c0.1-0.5,0-1,0-1.5c0.3-10.3,0.8-20.7,0.9-31
			c0.1-6.1,1.8-9.5,8.6-10.4c15.3-2.1,30.3-6.5,46-6.2c8,0.2,16-0.5,24-1c4.5-0.3,9-0.9,13.5-1.5c2.6-0.3,5.3-1.8,7.5,1
			c2.2,2.8,0,4.7-1,7c-6,14.7-16.8,26-26,38.5c-9.4,12.6-23.2,19.6-35.5,28.5c-4.5,3.3-9,6.7-13.5,10c-4.8,3.6-10,6.2-16,7"/>
		<path class="st2" d="M1189.2,901.5c-12.8-3.6-24.9-9-36.5-15.5c-12.4-6.9-17.8-17.5-18.1-31.5c-0.2-8.5-1-17-2-25.5
			c-0.7-6-5.1-9.7-10.5-11.4c-5.1-1.6-10.6-2.9-15.9-3c-18.7-0.4-36.5-4.3-53.5-12.1c-13.2-6-27.1-8.1-41.5-7
			c-3.7,0.3-7.4,0.7-11,1.5c-6.1,1.4-9.4-0.6-9.4-7c0-8.3,0.6-16.7,0.9-25c0-1,0-2,0-3c0.7-11.7,1.2-23.3,2-35
			c0.5-7.3,4.7-11.2,12-11.5c16.3-0.7,32.4-2.5,48.5-4.8c11.2-1.6,22.3,0.2,31.9,6.9c8.4,5.9,16.6,12,24.5,18.5
			c10.3,8.4,21.8,13.1,35,12.3c13.2-0.8,25.7-3.8,35-14.4c7.3-8.2,15.1-16,21.9-24.6c6.4-8.2,8.2-18.2,9.2-28.4
			c1-10.5,2.3-21.1,4.5-31.5c3.5-16.5,13.9-27,29.8-32.6c12.5-4.4,24.7-9.8,37-14.9c8.1-3.3,12.7-2.8,17.9,3.6
			c8,9.6,15.6,19.6,19.9,31.5c2,5.5,3.1,11.6,3.5,17.5c0.6,7.8,0.7,15.7,0,23.5c-1,11.7-5.3,21.5-16.8,27.1
			c-10.5,5.2-21.7,8.3-33.1,10.3c-20,3.4-33.7,13.9-41,33.1c-6.2,16.3-13.3,32.2-19.3,48.6c-4.8,13-7.2,26.7-5.4,40.4
			c1,7.8,4.3,15.4,6.8,23c1.4,4.2,3.3,8.3,4.9,12.5c2.4,6.1,1.3,12.2-3.1,16.3c-7.7,7.2-16.6,12.6-27.8,12.2"/>
		<path class="st2" d="M782.3,912.5c-5.8-4-6.3-6.8-5.1-14.5c1.6-10.2,5.9-18.8,12-27.1c6.3-8.7,11.4-18.2,17.2-27.4
			c3.9-6.2,8.7-11.1,17-10c1.9,0.3,4.1,0.5,5.4,1.5c9.1,7.5,15.5,16.4,15.1,28.9c-0.2,6.7,0.3,13.4-2.4,20
			c-4.3,10.5-12.6,16.6-22.2,20.8c-11.5,5-23.7,7.8-36.4,7.7"/>
		<path class="st2" d="M1773,614.5c-8.1-3.5-9.4-7.2-7.1-18.5c2-10,8.1-17,15.2-23.4c2.6-2.3,7.9,0.2,8.3,4.5c0.7,7.6,3.2,15,1.3,23
			c-2.1,8.9-7.9,14.5-17.2,14.5"/>
		<path class="st2" d="M732.3,613.5c-23.1-6.7-35.3-23.6-41.9-45.5c-2.1-6.9,0.9-14.9,8-18.8c15.1-8.3,31.4-10.9,48.4-7.1
			c11.3,2.5,16.5,11.7,20.3,21.1c3.5,8.6,6.7,17.7,3.7,27.4c-2,6.4-5.2,12-11.4,15.6c-8.3,4.7-16.7,8.6-26.5,7.4"/>
		<path class="st2" d="M1107.2,608.5c-3.5-1.2-7.5-1.6-10.4-3.6c-7.8-5.6-9.2-14.1-4.5-23.3c5.7-11.3,15.6-17.6,27.9-20
			c7.2-1.4,12.7,4.3,11.3,12.4c-1.1,6.8-3.4,13.4-5.4,20c-0.7,2.3-1.7,4.5-3,6.5c-3.7,5.3-9,7.8-15.4,8"/>
		<path class="st2" d="M828.3,585.5c-19.8-3.5-26.5-18.4-30.5-35.5c-3.5-14.9-1.4-29.5,2-44c2.4-10.5,5.4-20.9,6.8-31.5
			c1.7-12-1.2-23.3-14.8-30.4c-5.9-3.1-12.3-5.4-18.5-8.1c-14.8-6.6-24.7-17.5-30.1-32.9c-3-8.7-5.9-17.3-5.3-26.5
			c0.8-13,6.2-23.7,19-27.9c17.7-5.9,34.1,0.7,42.8,16.9c5.1,9.4,8.1,19.9,13.8,28.8c8.4,12.9,18.4,24.9,27.8,37.1
			c11,14.4,22.1,28.6,32.9,43c4.3,5.8,6,12.9,6.4,20c0.2,4-1.1,8-1.3,12c-0.2,5-0.1,10-0.1,15c0,8.2,0.8,16.5-0.3,24.5
			c-0.7,5.2-3.6,10.6-6.8,14.9c-8.4,11.3-19.5,19.5-33.4,23.1c-3.2,0.8-6.7,1-10,1.5"/>
		<path class="st2" d="M1296.1,582.5c-7.4-1.6-12.2-6.8-17-12c-7.7-8.5-15.2-17.1-19.2-28.4c-4.8-13.6-3-26.5,1.7-39.5
			c2.2-6.1,5.5-11.4,10.5-15.5c9.4-7.6,17.9-7.3,28.4-0.9c7.5,4.6,13.7,10.8,18.6,18.4c6.8,10.3,13.9,20.2,19.1,31.5
			c3.4,7.5,2.8,14-1.8,20c-10.2,13.4-23.9,21.7-39.9,26.6"/>
		<path class="st2" d="M1592,277.5c-5.2-1.5-10.7-2.3-15.4-4.6c-9.4-4.6-14.6-12.5-14-23.4c0.3-4.9,0.3-9.9,1.6-14.5
			c4.4-16.1,17.5-19.1,30.9-17.1c5.4,0.8,10.2,2.6,14.5,6c10.3,8.2,10.2,19.2,7.9,30.5c-1.7,8.1-6.5,14.7-13.1,19.3
			c-3.2,2.3-7.9,2.5-11.9,3.7"/>
	</g>
</g>
</svg>
